<svg xmlns="http://www.w3.org/2000/svg" xmlns:xlink="http://www.w3.org/1999/xlink" width="135" zoomAndPan="magnify" viewBox="0 0 101.25 37.5" height="50" preserveAspectRatio="xMidYMid meet" version="1.0"><defs><g/><clipPath id="bbbd733f9a"><path d="M 0.296875 0 L 100.214844 0 L 100.214844 37.007812 L 0.296875 37.007812 Z M 0.296875 0 " clip-rule="nonzero"/></clipPath><clipPath id="fd5e73fe4f"><path d="M 6.070312 3.699219 L 28.90625 3.699219 L 28.90625 32.933594 L 6.070312 32.933594 Z M 6.070312 3.699219 " clip-rule="nonzero"/></clipPath><clipPath id="3725caf4ce"><path d="M 7 3.699219 L 29.820312 3.699219 L 29.820312 32.933594 L 7 32.933594 Z M 7 3.699219 " clip-rule="nonzero"/></clipPath></defs><g clip-path="url(#bbbd733f9a)"><path fill="#ffffff" d="M 0.296875 0 L 100.953125 0 L 100.953125 44.40625 L 0.296875 44.40625 Z M 0.296875 0 " fill-opacity="1" fill-rule="nonzero"/><path fill="#ffffff" d="M 0.296875 0 L 100.214844 0 L 100.214844 37.007812 L 0.296875 37.007812 Z M 0.296875 0 " fill-opacity="1" fill-rule="nonzero"/><path fill="#ffffff" d="M 0.296875 0 L 100.214844 0 L 100.214844 37.007812 L 0.296875 37.007812 Z M 0.296875 0 " fill-opacity="1" fill-rule="nonzero"/></g><g clip-path="url(#fd5e73fe4f)"><path fill="#fdd504" d="M 7.242188 32.003906 C 7.644531 32.078125 9.035156 31.914062 10.304688 31.613281 C 11.574219 31.316406 14.4375 30.683594 16.695312 29.484375 C 18.953125 28.285156 19.59375 27.234375 20.113281 26.628906 C 20.632812 26.019531 20.769531 25.496094 20.878906 25.15625 C 20.988281 24.820312 21.011719 24.289062 21.003906 23.898438 C 20.996094 23.507812 20.855469 23.035156 20.816406 22.234375 C 20.695312 20.003906 21.003906 19.121094 21.15625 18.484375 C 21.3125 17.84375 21.511719 16.292969 21.511719 16.097656 C 21.511719 15.902344 21.265625 14.800781 21.234375 14.140625 C 21.203125 13.480469 21.140625 12.941406 20.941406 12.355469 C 20.738281 11.769531 20.648438 11.058594 20.988281 9.804688 C 21.328125 8.554688 21.4375 7.789062 21.503906 6.828125 C 21.574219 5.867188 22.285156 4.832031 22.558594 4.578125 C 22.828125 4.324219 23.183594 3.882812 23.710938 3.8125 C 24.644531 3.699219 25.835938 4.136719 26.394531 4.40625 C 26.953125 4.675781 27.121094 4.945312 27.199219 5.066406 C 27.277344 5.1875 27.640625 5.484375 27.816406 5.628906 C 27.996094 5.769531 28.792969 6.226562 28.847656 6.257812 C 28.902344 6.289062 28.894531 6.421875 28.871094 6.589844 C 28.847656 6.753906 28.761719 6.796875 28.761719 6.796875 C 28.761719 6.796875 28.769531 6.894531 28.722656 6.925781 C 28.699219 6.941406 28.628906 6.941406 28.570312 6.941406 C 28.554688 7.035156 28.535156 7.125 28.511719 7.1875 C 28.507812 7.191406 28.503906 7.195312 28.5 7.191406 C 28.496094 7.191406 28.492188 7.1875 28.492188 7.183594 C 28.519531 7.121094 28.539062 7.03125 28.550781 6.941406 C 28.5 6.9375 28.460938 6.933594 28.460938 6.933594 C 28.460938 6.933594 28.472656 7.003906 28.351562 7.058594 C 28.34375 7.140625 28.328125 7.207031 28.328125 7.207031 C 28.328125 7.210938 28.324219 7.214844 28.320312 7.214844 C 28.320312 7.214844 28.316406 7.214844 28.316406 7.210938 C 28.3125 7.210938 28.308594 7.207031 28.3125 7.203125 C 28.3125 7.203125 28.328125 7.144531 28.335938 7.066406 C 28.296875 7.082031 28.246094 7.097656 28.183594 7.105469 C 28.058594 7.28125 27.949219 7.40625 27.949219 7.40625 C 27.949219 7.410156 27.945312 7.410156 27.945312 7.410156 C 27.941406 7.410156 27.941406 7.410156 27.9375 7.40625 C 27.933594 7.40625 27.933594 7.398438 27.9375 7.394531 C 27.9375 7.394531 28.039062 7.277344 28.160156 7.109375 C 28.128906 7.113281 28.09375 7.117188 28.054688 7.117188 C 28.03125 7.140625 28.007812 7.164062 27.980469 7.183594 C 27.976562 7.183594 27.96875 7.183594 27.96875 7.179688 C 27.964844 7.175781 27.964844 7.171875 27.96875 7.167969 C 27.992188 7.152344 28.011719 7.136719 28.027344 7.121094 C 27.589844 7.148438 26.652344 7.144531 26.609375 7.15625 C 26.480469 7.210938 25.351562 7.421875 25.171875 7.367188 C 24.996094 7.316406 24.757812 7.355469 24.734375 7.417969 C 24.707031 7.484375 24.546875 7.585938 24.546875 7.578125 C 24.5 7.929688 24.585938 8.523438 24.667969 8.71875 C 24.753906 8.914062 25.730469 9.542969 26.269531 10.464844 C 26.8125 11.386719 26.269531 12.394531 26.269531 12.394531 C 26.269531 12.394531 26.355469 12.492188 26.378906 13.113281 C 26.402344 13.734375 26.601562 14.539062 26.929688 15.21875 C 27.253906 15.902344 27.734375 16.601562 27.902344 16.796875 C 28.074219 16.992188 28.113281 17.3125 28.042969 17.566406 C 27.972656 17.824219 27.925781 18.0625 27.925781 18.355469 C 27.925781 18.648438 27.625 19.164062 27.585938 19.382812 C 27.546875 19.601562 27.46875 19.710938 27.476562 19.707031 C 27.492188 19.808594 27.390625 19.9375 27.390625 19.9375 C 27.390625 19.9375 27.367188 20.019531 27.367188 20.15625 C 27.367188 20.289062 27.191406 20.5 27.191406 20.5 C 27.160156 20.703125 27.011719 20.925781 27.011719 20.921875 C 26.996094 20.84375 26.980469 20.746094 26.980469 20.746094 C 26.980469 20.746094 26.921875 20.835938 26.921875 20.828125 C 26.867188 20.574219 26.921875 20.371094 26.921875 20.371094 L 26.867188 20.296875 C 26.867188 20.296875 26.820312 20.371094 26.8125 20.359375 C 26.78125 20.085938 26.820312 19.960938 26.820312 19.960938 C 26.820312 19.960938 26.78125 19.886719 26.78125 19.871094 C 26.710938 19.863281 26.703125 19.398438 26.695312 19.113281 C 26.6875 18.828125 26.765625 18.714844 26.765625 18.707031 C 26.75 18.617188 26.914062 18.40625 27.003906 18.207031 C 27.097656 18.003906 27.011719 17.921875 27.058594 17.792969 C 27.105469 17.664062 27.160156 17.457031 27.128906 17.335938 C 27.097656 17.214844 26.632812 16.847656 26.625 16.855469 C 26.679688 18.25 26.199219 19.871094 26.199219 19.871094 C 26.261719 20.183594 26.199219 20.402344 26.199219 20.394531 C 26.269531 20.574219 26.214844 20.808594 26.214844 20.808594 L 26.15625 20.710938 C 26.15625 20.753906 26.140625 20.914062 26.140625 20.90625 C 26.039062 20.800781 25.976562 20.605469 25.976562 20.605469 C 25.898438 20.925781 25.582031 21.257812 25.660156 21.625 C 25.738281 21.992188 25.550781 23.167969 25.550781 23.175781 C 26.167969 24.550781 26.09375 26.035156 25.644531 27.007812 C 25.195312 27.984375 23.355469 28.71875 23.355469 28.71875 C 23.355469 28.71875 23.199219 29.019531 23.183594 29.199219 C 23.167969 29.378906 23.199219 29.851562 23.515625 30.496094 C 23.835938 31.140625 24.089844 31.203125 24.40625 31.253906 C 24.722656 31.308594 24.808594 31.335938 24.886719 31.375 C 24.964844 31.410156 24.980469 31.480469 24.980469 31.480469 C 24.980469 31.480469 25.070312 31.523438 25.320312 31.53125 C 25.566406 31.539062 25.664062 31.652344 25.695312 31.703125 C 25.808594 31.652344 26.179688 31.90625 26.179688 31.90625 L 26.101562 31.921875 C 26.101562 31.921875 26.167969 31.980469 26.179688 31.972656 C 25.945312 32.027344 25.675781 31.945312 25.675781 31.945312 C 25.675781 31.945312 25.746094 32.011719 25.746094 32.003906 C 25.628906 32.035156 25.261719 32.003906 25.25 32.003906 C 25.1875 32.074219 24.734375 32.035156 24.734375 32.035156 C 24.589844 32.105469 24.28125 32.042969 24.113281 32.015625 C 23.949219 31.984375 23.636719 31.863281 23.453125 31.753906 C 23.222656 31.617188 22.816406 30.722656 22.816406 30.722656 C 22.816406 30.722656 22.835938 31.023438 23.042969 31.394531 C 23.25 31.765625 23.507812 31.855469 23.847656 31.984375 C 24.1875 32.113281 24.257812 32.214844 24.300781 32.246094 C 24.34375 32.273438 24.507812 32.335938 24.652344 32.382812 C 24.796875 32.433594 25.003906 32.675781 25.003906 32.664062 C 25.375 32.765625 25.457031 32.921875 25.457031 32.910156 C 25.261719 32.929688 24.929688 32.863281 24.929688 32.863281 L 24.746094 32.863281 L 24.796875 32.90625 C 24.578125 32.914062 24.273438 32.800781 24.273438 32.800781 C 24.183594 32.875 23.6875 32.800781 23.332031 32.695312 C 22.976562 32.589844 22.867188 32.484375 22.667969 32.320312 C 22.464844 32.15625 22.21875 31.613281 22.140625 31.222656 C 22.0625 30.835938 21.753906 29.320312 21.644531 28.960938 C 21.535156 28.601562 22.03125 28.316406 22.449219 28.03125 C 22.867188 27.746094 23.347656 26.933594 23.347656 26.753906 C 23.347656 26.574219 22.710938 26.289062 22.710938 26.289062 C 22.710938 26.289062 22.324219 26.710938 21.148438 27.96875 C 19.972656 29.230469 17.992188 30.429688 16.136719 31.164062 C 14.28125 31.898438 12.535156 32.210938 10.554688 32.515625 C 8.859375 32.773438 7.441406 32.808594 6.902344 32.542969 C 6.074219 32.140625 6.839844 31.929688 7.242188 32.003906 " fill-opacity="1" fill-rule="nonzero"/></g><g clip-path="url(#3725caf4ce)"><path fill="#0e6c86" d="M 8.15625 32.003906 C 8.558594 32.078125 9.949219 31.914062 11.21875 31.613281 C 12.488281 31.316406 15.347656 30.683594 17.609375 29.484375 C 19.867188 28.285156 20.507812 27.234375 21.027344 26.628906 C 21.546875 26.019531 21.683594 25.496094 21.792969 25.15625 C 21.902344 24.820312 21.925781 24.289062 21.917969 23.898438 C 21.910156 23.507812 21.769531 23.035156 21.730469 22.234375 C 21.605469 20.003906 21.917969 19.121094 22.070312 18.484375 C 22.226562 17.84375 22.425781 16.292969 22.425781 16.097656 C 22.425781 15.902344 22.179688 14.800781 22.148438 14.140625 C 22.117188 13.480469 22.054688 12.941406 21.855469 12.355469 C 21.652344 11.769531 21.5625 11.058594 21.902344 9.804688 C 22.242188 8.554688 22.351562 7.789062 22.417969 6.828125 C 22.488281 5.867188 23.199219 4.832031 23.472656 4.578125 C 23.742188 4.324219 24.097656 3.882812 24.625 3.8125 C 25.558594 3.699219 26.75 4.136719 27.308594 4.40625 C 27.863281 4.675781 28.035156 4.945312 28.113281 5.066406 C 28.191406 5.1875 28.554688 5.484375 28.730469 5.628906 C 28.910156 5.769531 29.707031 6.226562 29.761719 6.257812 C 29.8125 6.289062 29.804688 6.421875 29.78125 6.589844 C 29.761719 6.753906 29.675781 6.796875 29.675781 6.796875 C 29.675781 6.796875 29.683594 6.894531 29.636719 6.925781 C 29.613281 6.941406 29.542969 6.941406 29.484375 6.941406 C 29.46875 7.035156 29.449219 7.125 29.421875 7.1875 C 29.421875 7.191406 29.417969 7.195312 29.414062 7.191406 C 29.410156 7.191406 29.40625 7.1875 29.40625 7.183594 C 29.433594 7.121094 29.453125 7.03125 29.464844 6.941406 C 29.414062 6.9375 29.375 6.933594 29.375 6.933594 C 29.375 6.933594 29.386719 7.003906 29.265625 7.058594 C 29.257812 7.140625 29.242188 7.207031 29.242188 7.207031 C 29.238281 7.210938 29.238281 7.214844 29.234375 7.214844 C 29.230469 7.214844 29.230469 7.214844 29.230469 7.210938 C 29.226562 7.210938 29.222656 7.207031 29.226562 7.203125 C 29.226562 7.203125 29.242188 7.144531 29.246094 7.066406 C 29.210938 7.082031 29.160156 7.097656 29.09375 7.105469 C 28.972656 7.28125 28.863281 7.40625 28.863281 7.40625 C 28.863281 7.410156 28.859375 7.410156 28.855469 7.410156 C 28.855469 7.410156 28.851562 7.410156 28.851562 7.40625 C 28.847656 7.40625 28.847656 7.398438 28.851562 7.394531 C 28.851562 7.394531 28.953125 7.277344 29.074219 7.109375 C 29.042969 7.113281 29.007812 7.117188 28.964844 7.117188 C 28.945312 7.140625 28.921875 7.164062 28.890625 7.183594 C 28.886719 7.183594 28.882812 7.183594 28.878906 7.179688 C 28.878906 7.175781 28.878906 7.171875 28.882812 7.167969 C 28.90625 7.152344 28.921875 7.136719 28.941406 7.121094 C 28.503906 7.148438 27.566406 7.144531 27.523438 7.15625 C 27.394531 7.210938 26.261719 7.421875 26.085938 7.367188 C 25.90625 7.316406 25.671875 7.355469 25.648438 7.417969 C 25.621094 7.484375 25.460938 7.585938 25.460938 7.578125 C 25.414062 7.929688 25.496094 8.523438 25.582031 8.71875 C 25.667969 8.914062 26.644531 9.542969 27.183594 10.464844 C 27.726562 11.386719 27.183594 12.394531 27.183594 12.394531 C 27.183594 12.394531 27.269531 12.492188 27.292969 13.113281 C 27.316406 13.734375 27.515625 14.539062 27.839844 15.21875 C 28.167969 15.902344 28.644531 16.601562 28.816406 16.796875 C 28.988281 16.992188 29.023438 17.3125 28.957031 17.566406 C 28.886719 17.824219 28.839844 18.0625 28.839844 18.355469 C 28.839844 18.648438 28.539062 19.164062 28.5 19.382812 C 28.460938 19.601562 28.382812 19.710938 28.390625 19.707031 C 28.40625 19.808594 28.304688 19.9375 28.304688 19.9375 C 28.304688 19.9375 28.28125 20.019531 28.28125 20.15625 C 28.28125 20.289062 28.105469 20.5 28.105469 20.5 C 28.074219 20.703125 27.925781 20.925781 27.925781 20.921875 C 27.910156 20.84375 27.894531 20.746094 27.894531 20.746094 C 27.894531 20.746094 27.832031 20.835938 27.832031 20.828125 C 27.78125 20.574219 27.832031 20.371094 27.832031 20.371094 L 27.78125 20.296875 C 27.78125 20.296875 27.734375 20.371094 27.726562 20.359375 C 27.695312 20.085938 27.734375 19.960938 27.734375 19.960938 C 27.734375 19.960938 27.695312 19.886719 27.695312 19.871094 C 27.625 19.863281 27.617188 19.398438 27.609375 19.113281 C 27.601562 18.828125 27.679688 18.714844 27.679688 18.707031 C 27.664062 18.617188 27.824219 18.40625 27.917969 18.207031 C 28.011719 18.003906 27.925781 17.921875 27.972656 17.792969 C 28.019531 17.664062 28.074219 17.457031 28.042969 17.335938 C 28.011719 17.214844 27.546875 16.847656 27.539062 16.855469 C 27.59375 18.25 27.113281 19.871094 27.113281 19.871094 C 27.175781 20.183594 27.113281 20.402344 27.113281 20.394531 C 27.183594 20.574219 27.128906 20.808594 27.128906 20.808594 L 27.066406 20.710938 C 27.066406 20.753906 27.050781 20.914062 27.050781 20.90625 C 26.953125 20.800781 26.890625 20.605469 26.890625 20.605469 C 26.8125 20.925781 26.496094 21.257812 26.574219 21.625 C 26.648438 21.992188 26.464844 23.167969 26.464844 23.175781 C 27.082031 24.550781 27.007812 26.035156 26.558594 27.007812 C 26.109375 27.984375 24.269531 28.71875 24.269531 28.71875 C 24.269531 28.71875 24.113281 29.019531 24.097656 29.199219 C 24.082031 29.378906 24.113281 29.851562 24.429688 30.496094 C 24.746094 31.140625 25.003906 31.203125 25.320312 31.253906 C 25.636719 31.308594 25.722656 31.335938 25.800781 31.375 C 25.875 31.410156 25.890625 31.480469 25.890625 31.480469 C 25.890625 31.480469 25.984375 31.523438 26.234375 31.53125 C 26.480469 31.539062 26.574219 31.652344 26.609375 31.703125 C 26.722656 31.652344 27.089844 31.90625 27.089844 31.90625 L 27.015625 31.921875 C 27.015625 31.921875 27.082031 31.980469 27.089844 31.972656 C 26.859375 32.027344 26.589844 31.945312 26.589844 31.945312 C 26.589844 31.945312 26.65625 32.011719 26.65625 32.003906 C 26.542969 32.035156 26.171875 32.003906 26.164062 32.003906 C 26.101562 32.074219 25.648438 32.035156 25.648438 32.035156 C 25.503906 32.105469 25.195312 32.042969 25.027344 32.015625 C 24.863281 31.984375 24.550781 31.863281 24.367188 31.753906 C 24.132812 31.617188 23.730469 30.722656 23.730469 30.722656 C 23.730469 30.722656 23.75 31.023438 23.957031 31.394531 C 24.164062 31.765625 24.421875 31.855469 24.761719 31.984375 C 25.101562 32.113281 25.171875 32.214844 25.214844 32.246094 C 25.253906 32.273438 25.421875 32.335938 25.566406 32.382812 C 25.710938 32.433594 25.914062 32.675781 25.914062 32.664062 C 26.285156 32.765625 26.371094 32.921875 26.371094 32.910156 C 26.175781 32.929688 25.84375 32.863281 25.84375 32.863281 L 25.65625 32.863281 L 25.710938 32.90625 C 25.492188 32.914062 25.1875 32.800781 25.1875 32.800781 C 25.09375 32.875 24.601562 32.800781 24.246094 32.695312 C 23.890625 32.589844 23.78125 32.484375 23.578125 32.320312 C 23.378906 32.15625 23.132812 31.613281 23.054688 31.222656 C 22.976562 30.835938 22.667969 29.320312 22.558594 28.960938 C 22.449219 28.601562 22.945312 28.316406 23.363281 28.03125 C 23.78125 27.746094 24.261719 26.933594 24.261719 26.753906 C 24.261719 26.574219 23.625 26.289062 23.625 26.289062 C 23.625 26.289062 23.238281 26.710938 22.0625 27.96875 C 20.886719 29.230469 18.90625 30.429688 17.050781 31.164062 C 15.195312 31.898438 13.449219 32.210938 11.464844 32.515625 C 9.773438 32.773438 8.355469 32.808594 7.816406 32.542969 C 6.988281 32.140625 7.753906 31.929688 8.15625 32.003906 " fill-opacity="1" fill-rule="nonzero"/></g><g fill="#000000" fill-opacity="1"><g transform="translate(37.468827, 13.322369)"><g><path d="M 4.40625 -8.140625 C 7.25 -8.140625 8.671875 -6.78125 8.671875 -4.0625 C 8.671875 -1.351562 7.25 0 4.40625 0 L 0.875 0 L 0.875 -8.140625 Z M 3.484375 -1.953125 L 4.359375 -1.953125 C 5.453125 -1.953125 6 -2.539062 6 -3.71875 L 6 -4.421875 C 6 -5.597656 5.453125 -6.1875 4.359375 -6.1875 L 3.484375 -6.1875 Z M 3.484375 -1.953125 "/></g></g></g><g fill="#000000" fill-opacity="1"><g transform="translate(46.672937, 13.322369)"><g><path d="M 3.796875 -6.390625 C 4.753906 -6.390625 5.53125 -6.226562 6.125 -5.90625 C 6.726562 -5.582031 7.03125 -5.066406 7.03125 -4.359375 L 7.03125 -1.921875 C 7.03125 -1.785156 7.0625 -1.671875 7.125 -1.578125 C 7.1875 -1.492188 7.28125 -1.453125 7.40625 -1.453125 L 7.828125 -1.453125 L 7.828125 -0.09375 C 7.804688 -0.0820312 7.742188 -0.0546875 7.640625 -0.015625 C 7.546875 0.015625 7.40625 0.046875 7.21875 0.078125 C 7.039062 0.117188 6.832031 0.140625 6.59375 0.140625 C 6.144531 0.140625 5.769531 0.0703125 5.46875 -0.0625 C 5.175781 -0.195312 4.972656 -0.390625 4.859375 -0.640625 C 4.554688 -0.398438 4.21875 -0.207031 3.84375 -0.0625 C 3.476562 0.0703125 3.050781 0.140625 2.5625 0.140625 C 1.09375 0.140625 0.359375 -0.441406 0.359375 -1.609375 C 0.359375 -2.210938 0.519531 -2.675781 0.84375 -3 C 1.175781 -3.320312 1.648438 -3.539062 2.265625 -3.65625 C 2.878906 -3.769531 3.679688 -3.828125 4.671875 -3.828125 L 4.671875 -4.140625 C 4.671875 -4.378906 4.582031 -4.5625 4.40625 -4.6875 C 4.238281 -4.820312 4.023438 -4.890625 3.765625 -4.890625 C 3.515625 -4.890625 3.300781 -4.84375 3.125 -4.75 C 2.945312 -4.664062 2.859375 -4.53125 2.859375 -4.34375 L 2.859375 -4.296875 L 0.546875 -4.296875 C 0.535156 -4.335938 0.53125 -4.390625 0.53125 -4.453125 C 0.53125 -5.046875 0.8125 -5.515625 1.375 -5.859375 C 1.9375 -6.210938 2.742188 -6.390625 3.796875 -6.390625 Z M 4.671875 -2.71875 C 4.003906 -2.71875 3.507812 -2.644531 3.1875 -2.5 C 2.863281 -2.351562 2.703125 -2.160156 2.703125 -1.921875 C 2.703125 -1.523438 2.972656 -1.328125 3.515625 -1.328125 C 3.816406 -1.328125 4.082031 -1.410156 4.3125 -1.578125 C 4.550781 -1.742188 4.671875 -1.945312 4.671875 -2.1875 Z M 4.671875 -2.71875 "/></g></g></g><g fill="#000000" fill-opacity="1"><g transform="translate(54.563871, 13.322369)"><g><path d="M 4.875 -6.25 L 4.875 -4.65625 L 3.546875 -4.65625 L 3.546875 -2.265625 C 3.546875 -1.984375 3.59375 -1.773438 3.6875 -1.640625 C 3.78125 -1.515625 3.953125 -1.453125 4.203125 -1.453125 L 4.875 -1.453125 L 4.875 -0.078125 C 4.6875 -0.00390625 4.441406 0.046875 4.140625 0.078125 C 3.835938 0.117188 3.578125 0.140625 3.359375 0.140625 C 2.660156 0.140625 2.125 0.015625 1.75 -0.234375 C 1.375 -0.484375 1.1875 -0.914062 1.1875 -1.53125 L 1.1875 -4.65625 L 0.3125 -4.65625 L 0.3125 -6.25 L 1.296875 -6.25 L 1.796875 -8.140625 L 3.546875 -8.140625 L 3.546875 -6.25 Z M 4.875 -6.25 "/></g></g></g><g fill="#000000" fill-opacity="1"><g transform="translate(59.816608, 13.322369)"><g><path d="M 3.796875 -6.390625 C 4.753906 -6.390625 5.53125 -6.226562 6.125 -5.90625 C 6.726562 -5.582031 7.03125 -5.066406 7.03125 -4.359375 L 7.03125 -1.921875 C 7.03125 -1.785156 7.0625 -1.671875 7.125 -1.578125 C 7.1875 -1.492188 7.28125 -1.453125 7.40625 -1.453125 L 7.828125 -1.453125 L 7.828125 -0.09375 C 7.804688 -0.0820312 7.742188 -0.0546875 7.640625 -0.015625 C 7.546875 0.015625 7.40625 0.046875 7.21875 0.078125 C 7.039062 0.117188 6.832031 0.140625 6.59375 0.140625 C 6.144531 0.140625 5.769531 0.0703125 5.46875 -0.0625 C 5.175781 -0.195312 4.972656 -0.390625 4.859375 -0.640625 C 4.554688 -0.398438 4.21875 -0.207031 3.84375 -0.0625 C 3.476562 0.0703125 3.050781 0.140625 2.5625 0.140625 C 1.09375 0.140625 0.359375 -0.441406 0.359375 -1.609375 C 0.359375 -2.210938 0.519531 -2.675781 0.84375 -3 C 1.175781 -3.320312 1.648438 -3.539062 2.265625 -3.65625 C 2.878906 -3.769531 3.679688 -3.828125 4.671875 -3.828125 L 4.671875 -4.140625 C 4.671875 -4.378906 4.582031 -4.5625 4.40625 -4.6875 C 4.238281 -4.820312 4.023438 -4.890625 3.765625 -4.890625 C 3.515625 -4.890625 3.300781 -4.84375 3.125 -4.75 C 2.945312 -4.664062 2.859375 -4.53125 2.859375 -4.34375 L 2.859375 -4.296875 L 0.546875 -4.296875 C 0.535156 -4.335938 0.53125 -4.390625 0.53125 -4.453125 C 0.53125 -5.046875 0.8125 -5.515625 1.375 -5.859375 C 1.9375 -6.210938 2.742188 -6.390625 3.796875 -6.390625 Z M 4.671875 -2.71875 C 4.003906 -2.71875 3.507812 -2.644531 3.1875 -2.5 C 2.863281 -2.351562 2.703125 -2.160156 2.703125 -1.921875 C 2.703125 -1.523438 2.972656 -1.328125 3.515625 -1.328125 C 3.816406 -1.328125 4.082031 -1.410156 4.3125 -1.578125 C 4.550781 -1.742188 4.671875 -1.945312 4.671875 -2.1875 Z M 4.671875 -2.71875 "/></g></g></g><g fill="#000000" fill-opacity="1"><g transform="translate(67.698575, 13.322369)"><g/></g></g><g fill="#000000" fill-opacity="1"><g transform="translate(37.468827, 29.605263)"><g><path d="M 7.859375 0 L 7.859375 -2.9375 C 7.859375 -3.300781 7.875 -3.671875 7.90625 -4.046875 C 7.9375 -4.429688 7.96875 -4.753906 8 -5.015625 C 8.03125 -5.273438 8.050781 -5.441406 8.0625 -5.515625 L 8 -5.515625 L 6.5 0 L 4.453125 0 L 2.9375 -5.5 L 2.890625 -5.5 C 2.898438 -5.425781 2.921875 -5.257812 2.953125 -5 C 2.992188 -4.75 3.03125 -4.429688 3.0625 -4.046875 C 3.09375 -3.671875 3.109375 -3.300781 3.109375 -2.9375 L 3.109375 0 L 0.703125 0 L 0.703125 -8.140625 L 4.40625 -8.140625 L 5.625 -3.4375 L 5.671875 -3.4375 L 6.890625 -8.140625 L 10.453125 -8.140625 L 10.453125 0 Z M 7.859375 0 "/></g></g></g><g fill="#000000" fill-opacity="1"><g transform="translate(48.6368, 29.605263)"><g><path d="M 3.9375 -6.390625 C 5.082031 -6.390625 5.957031 -6.117188 6.5625 -5.578125 C 7.164062 -5.046875 7.46875 -4.226562 7.46875 -3.125 L 7.46875 -2.71875 L 2.78125 -2.71875 C 2.78125 -2.269531 2.878906 -1.929688 3.078125 -1.703125 C 3.285156 -1.472656 3.601562 -1.359375 4.03125 -1.359375 C 4.425781 -1.359375 4.71875 -1.441406 4.90625 -1.609375 C 5.09375 -1.773438 5.1875 -1.992188 5.1875 -2.265625 L 7.46875 -2.265625 C 7.46875 -1.515625 7.175781 -0.925781 6.59375 -0.5 C 6.019531 -0.0703125 5.179688 0.140625 4.078125 0.140625 C 2.921875 0.140625 2.019531 -0.128906 1.375 -0.671875 C 0.738281 -1.210938 0.421875 -2.03125 0.421875 -3.125 C 0.421875 -4.195312 0.734375 -5.007812 1.359375 -5.5625 C 1.984375 -6.113281 2.84375 -6.390625 3.9375 -6.390625 Z M 4.03125 -4.890625 C 3.289062 -4.890625 2.878906 -4.535156 2.796875 -3.828125 L 5.09375 -3.828125 C 5.09375 -4.148438 5 -4.40625 4.8125 -4.59375 C 4.625 -4.789062 4.363281 -4.890625 4.03125 -4.890625 Z M 4.03125 -4.890625 "/></g></g></g><g fill="#000000" fill-opacity="1"><g transform="translate(56.527734, 29.605263)"><g><path d="M 3.9375 -6.390625 C 5.082031 -6.390625 5.957031 -6.117188 6.5625 -5.578125 C 7.164062 -5.046875 7.46875 -4.226562 7.46875 -3.125 L 7.46875 -2.71875 L 2.78125 -2.71875 C 2.78125 -2.269531 2.878906 -1.929688 3.078125 -1.703125 C 3.285156 -1.472656 3.601562 -1.359375 4.03125 -1.359375 C 4.425781 -1.359375 4.71875 -1.441406 4.90625 -1.609375 C 5.09375 -1.773438 5.1875 -1.992188 5.1875 -2.265625 L 7.46875 -2.265625 C 7.46875 -1.515625 7.175781 -0.925781 6.59375 -0.5 C 6.019531 -0.0703125 5.179688 0.140625 4.078125 0.140625 C 2.921875 0.140625 2.019531 -0.128906 1.375 -0.671875 C 0.738281 -1.210938 0.421875 -2.03125 0.421875 -3.125 C 0.421875 -4.195312 0.734375 -5.007812 1.359375 -5.5625 C 1.984375 -6.113281 2.84375 -6.390625 3.9375 -6.390625 Z M 4.03125 -4.890625 C 3.289062 -4.890625 2.878906 -4.535156 2.796875 -3.828125 L 5.09375 -3.828125 C 5.09375 -4.148438 5 -4.40625 4.8125 -4.59375 C 4.625 -4.789062 4.363281 -4.890625 4.03125 -4.890625 Z M 4.03125 -4.890625 "/></g></g></g><g fill="#000000" fill-opacity="1"><g transform="translate(64.418668, 29.605263)"><g><path d="M 4.5 -6.40625 C 4.6875 -6.40625 4.847656 -6.378906 4.984375 -6.328125 C 5.128906 -6.285156 5.203125 -6.257812 5.203125 -6.25 L 5.203125 -4.28125 L 4.453125 -4.28125 C 3.960938 -4.28125 3.609375 -4.15625 3.390625 -3.90625 C 3.171875 -3.65625 3.0625 -3.28125 3.0625 -2.78125 L 3.0625 0 L 0.703125 0 L 0.703125 -6.25 L 2.640625 -6.25 L 2.796875 -5.296875 C 2.929688 -5.660156 3.148438 -5.9375 3.453125 -6.125 C 3.765625 -6.3125 4.113281 -6.40625 4.5 -6.40625 Z M 4.5 -6.40625 "/></g></g></g><g fill="#000000" fill-opacity="1"><g transform="translate(69.671405, 29.605263)"><g><path d="M 5.0625 -6.25 L 7.8125 -6.25 L 5.5 -3.71875 L 7.859375 0 L 5.1875 0 L 3.875 -2.140625 L 3.0625 -1.34375 L 3.0625 0 L 0.703125 0 L 0.703125 -8.59375 L 3.0625 -8.59375 L 3.0625 -3.859375 Z M 5.0625 -6.25 "/></g></g></g><g fill="#000000" fill-opacity="1"><g transform="translate(77.562339, 29.605263)"><g><path d="M 3.796875 -6.390625 C 4.753906 -6.390625 5.53125 -6.226562 6.125 -5.90625 C 6.726562 -5.582031 7.03125 -5.066406 7.03125 -4.359375 L 7.03125 -1.921875 C 7.03125 -1.785156 7.0625 -1.671875 7.125 -1.578125 C 7.1875 -1.492188 7.28125 -1.453125 7.40625 -1.453125 L 7.828125 -1.453125 L 7.828125 -0.09375 C 7.804688 -0.0820312 7.742188 -0.0546875 7.640625 -0.015625 C 7.546875 0.015625 7.40625 0.046875 7.21875 0.078125 C 7.039062 0.117188 6.832031 0.140625 6.59375 0.140625 C 6.144531 0.140625 5.769531 0.0703125 5.46875 -0.0625 C 5.175781 -0.195312 4.972656 -0.390625 4.859375 -0.640625 C 4.554688 -0.398438 4.21875 -0.207031 3.84375 -0.0625 C 3.476562 0.0703125 3.050781 0.140625 2.5625 0.140625 C 1.09375 0.140625 0.359375 -0.441406 0.359375 -1.609375 C 0.359375 -2.210938 0.519531 -2.675781 0.84375 -3 C 1.175781 -3.320312 1.648438 -3.539062 2.265625 -3.65625 C 2.878906 -3.769531 3.679688 -3.828125 4.671875 -3.828125 L 4.671875 -4.140625 C 4.671875 -4.378906 4.582031 -4.5625 4.40625 -4.6875 C 4.238281 -4.820312 4.023438 -4.890625 3.765625 -4.890625 C 3.515625 -4.890625 3.300781 -4.84375 3.125 -4.75 C 2.945312 -4.664062 2.859375 -4.53125 2.859375 -4.34375 L 2.859375 -4.296875 L 0.546875 -4.296875 C 0.535156 -4.335938 0.53125 -4.390625 0.53125 -4.453125 C 0.53125 -5.046875 0.8125 -5.515625 1.375 -5.859375 C 1.9375 -6.210938 2.742188 -6.390625 3.796875 -6.390625 Z M 4.671875 -2.71875 C 4.003906 -2.71875 3.507812 -2.644531 3.1875 -2.5 C 2.863281 -2.351562 2.703125 -2.160156 2.703125 -1.921875 C 2.703125 -1.523438 2.972656 -1.328125 3.515625 -1.328125 C 3.816406 -1.328125 4.082031 -1.410156 4.3125 -1.578125 C 4.550781 -1.742188 4.671875 -1.945312 4.671875 -2.1875 Z M 4.671875 -2.71875 "/></g></g></g><g fill="#000000" fill-opacity="1"><g transform="translate(85.453273, 29.605263)"><g><path d="M 4.875 -6.25 L 4.875 -4.65625 L 3.546875 -4.65625 L 3.546875 -2.265625 C 3.546875 -1.984375 3.59375 -1.773438 3.6875 -1.640625 C 3.78125 -1.515625 3.953125 -1.453125 4.203125 -1.453125 L 4.875 -1.453125 L 4.875 -0.078125 C 4.6875 -0.00390625 4.441406 0.046875 4.140625 0.078125 C 3.835938 0.117188 3.578125 0.140625 3.359375 0.140625 C 2.660156 0.140625 2.125 0.015625 1.75 -0.234375 C 1.375 -0.484375 1.1875 -0.914062 1.1875 -1.53125 L 1.1875 -4.65625 L 0.3125 -4.65625 L 0.3125 -6.25 L 1.296875 -6.25 L 1.796875 -8.140625 L 3.546875 -8.140625 L 3.546875 -6.25 Z M 4.875 -6.25 "/></g></g></g></svg>