<svg xmlns="http://www.w3.org/2000/svg" version="1.1" xmlns:xlink="http://www.w3.org/1999/xlink" xmlns:svgjs="http://svgjs.com/svgjs" width="512" height="512" x="0" y="0" viewBox="0 0 512 512" style="enable-background:new 0 0 512 512" xml:space="preserve" class=""><g><switch><g><path d="M487.5 146.5c-20.9-44.3-54-81.5-95.7-107.6-58-36.2-126.7-47.7-193.3-32.3C131.9 21.9 75.2 62.3 39 120.3 2.7 178.3-8.8 246.9 6.6 313.6 22 380.2 62.4 436.9 120.3 473.1c40.8 25.5 87.6 39 135.5 39h3.1c47.7-.6 94.1-14.4 134.3-39.8 11.7-7.4 15.1-22.8 7.7-34.5s-22.8-15.1-34.5-7.7c-32.3 20.5-69.7 31.6-108.1 32.1-39.4.5-77.9-10.4-111.5-31.3-46.7-29.2-79.2-74.8-91.5-128.4S52.2 193.7 81.4 147C141.6 50.7 269 21.3 365.3 81.5c33.6 21 60.2 50.9 77 86.5 16.4 34.7 22.8 73.2 18.5 111.2-1.5 13.7 8.3 26.1 22.1 27.6 13.7 1.5 26.1-8.3 27.6-22.1 5.3-47.3-2.7-95.1-23-138.2z" fill="#ffffff" data-original="#000000"></path><path d="M338.7 169.2 218.1 289.8l-44.7-44.7c-9.8-9.8-25.6-9.8-35.4 0s-9.8 25.6 0 35.4l62.4 62.4c4.9 4.9 11.3 7.3 17.7 7.3s12.8-2.4 17.7-7.3L374 204.6c9.8-9.8 9.8-25.6 0-35.4-9.8-9.7-25.6-9.7-35.3 0z" fill="#ffffff" data-original="#000000"></path></g></switch></g></svg>