<svg xmlns="http://www.w3.org/2000/svg" xmlns:xlink="http://www.w3.org/1999/xlink" width="135" zoomAndPan="magnify" viewBox="0 0 101.25 37.5" height="50" preserveAspectRatio="xMidYMid meet" version="1.0"><defs><g/><clipPath id="4839c0842d"><path d="M 0.296875 3 L 24.277344 3 L 24.277344 33.65625 L 0.296875 33.65625 Z M 0.296875 3 " clip-rule="nonzero"/></clipPath><clipPath id="b760ccaf3e"><path d="M 1.253906 3 L 25.238281 3 L 25.238281 33.65625 L 1.253906 33.65625 Z M 1.253906 3 " clip-rule="nonzero"/></clipPath></defs><g clip-path="url(#4839c0842d)"><path fill="#fdd504" d="M 1.527344 32.679688 C 1.949219 32.761719 3.414062 32.585938 4.746094 32.273438 C 6.078125 31.957031 9.082031 31.296875 11.453125 30.035156 C 13.824219 28.773438 14.5 27.671875 15.042969 27.035156 C 15.589844 26.394531 15.734375 25.84375 15.847656 25.492188 C 15.960938 25.136719 15.988281 24.578125 15.976562 24.167969 C 15.96875 23.757812 15.824219 23.261719 15.785156 22.417969 C 15.652344 20.082031 15.976562 19.152344 16.140625 18.480469 C 16.304688 17.8125 16.515625 16.183594 16.515625 15.976562 C 16.515625 15.773438 16.253906 14.613281 16.222656 13.921875 C 16.191406 13.230469 16.125 12.660156 15.914062 12.046875 C 15.703125 11.433594 15.605469 10.683594 15.960938 9.371094 C 16.320312 8.054688 16.433594 7.25 16.507812 6.242188 C 16.578125 5.234375 17.328125 4.148438 17.609375 3.878906 C 17.894531 3.613281 18.269531 3.148438 18.820312 3.078125 C 19.804688 2.960938 21.054688 3.414062 21.640625 3.699219 C 22.226562 3.984375 22.402344 4.265625 22.484375 4.390625 C 22.566406 4.519531 22.949219 4.832031 23.132812 4.984375 C 23.320312 5.132812 24.15625 5.613281 24.214844 5.644531 C 24.273438 5.675781 24.261719 5.816406 24.238281 5.992188 C 24.214844 6.164062 24.125 6.210938 24.125 6.210938 C 24.125 6.210938 24.132812 6.3125 24.085938 6.34375 C 24.058594 6.363281 23.988281 6.363281 23.925781 6.359375 C 23.910156 6.460938 23.886719 6.554688 23.863281 6.621094 C 23.859375 6.625 23.855469 6.628906 23.851562 6.625 C 23.84375 6.625 23.84375 6.621094 23.84375 6.613281 C 23.871094 6.550781 23.890625 6.457031 23.90625 6.359375 C 23.851562 6.359375 23.808594 6.351562 23.808594 6.351562 C 23.808594 6.351562 23.824219 6.429688 23.695312 6.484375 C 23.6875 6.574219 23.671875 6.640625 23.671875 6.640625 C 23.667969 6.644531 23.664062 6.648438 23.660156 6.648438 C 23.65625 6.644531 23.652344 6.640625 23.652344 6.636719 C 23.652344 6.636719 23.671875 6.574219 23.675781 6.492188 C 23.636719 6.511719 23.585938 6.523438 23.515625 6.535156 C 23.386719 6.71875 23.273438 6.851562 23.273438 6.851562 C 23.273438 6.851562 23.269531 6.855469 23.265625 6.855469 C 23.265625 6.855469 23.261719 6.851562 23.261719 6.851562 C 23.257812 6.847656 23.257812 6.84375 23.261719 6.839844 C 23.261719 6.839844 23.367188 6.714844 23.492188 6.539062 C 23.460938 6.542969 23.425781 6.546875 23.382812 6.546875 C 23.359375 6.570312 23.332031 6.59375 23.304688 6.613281 C 23.300781 6.617188 23.292969 6.617188 23.292969 6.613281 C 23.289062 6.609375 23.289062 6.601562 23.292969 6.601562 C 23.316406 6.585938 23.335938 6.566406 23.355469 6.550781 C 22.898438 6.582031 21.910156 6.574219 21.867188 6.589844 C 21.730469 6.644531 20.542969 6.867188 20.355469 6.808594 C 20.167969 6.753906 19.921875 6.796875 19.894531 6.863281 C 19.867188 6.929688 19.699219 7.039062 19.699219 7.03125 C 19.648438 7.402344 19.738281 8.023438 19.828125 8.226562 C 19.917969 8.433594 20.941406 9.09375 21.511719 10.0625 C 22.078125 11.03125 21.511719 12.085938 21.511719 12.085938 C 21.511719 12.085938 21.597656 12.1875 21.625 12.84375 C 21.648438 13.496094 21.859375 14.339844 22.199219 15.054688 C 22.542969 15.773438 23.046875 16.503906 23.222656 16.710938 C 23.402344 16.914062 23.441406 17.253906 23.371094 17.519531 C 23.296875 17.789062 23.25 18.039062 23.25 18.347656 C 23.25 18.65625 22.929688 19.199219 22.890625 19.425781 C 22.851562 19.65625 22.769531 19.773438 22.777344 19.765625 C 22.792969 19.875 22.6875 20.007812 22.6875 20.007812 C 22.6875 20.007812 22.664062 20.097656 22.664062 20.238281 C 22.664062 20.378906 22.476562 20.601562 22.476562 20.601562 C 22.445312 20.8125 22.289062 21.050781 22.289062 21.042969 C 22.273438 20.960938 22.257812 20.859375 22.257812 20.859375 C 22.257812 20.859375 22.191406 20.953125 22.191406 20.945312 C 22.136719 20.679688 22.191406 20.464844 22.191406 20.464844 L 22.136719 20.386719 C 22.136719 20.386719 22.085938 20.464844 22.078125 20.449219 C 22.046875 20.167969 22.085938 20.03125 22.085938 20.03125 C 22.085938 20.03125 22.046875 19.953125 22.046875 19.9375 C 21.972656 19.929688 21.964844 19.441406 21.957031 19.144531 C 21.949219 18.84375 22.03125 18.726562 22.03125 18.71875 C 22.011719 18.625 22.183594 18.402344 22.28125 18.191406 C 22.378906 17.976562 22.289062 17.890625 22.339844 17.757812 C 22.386719 17.625 22.445312 17.402344 22.410156 17.277344 C 22.378906 17.152344 21.890625 16.765625 21.882812 16.773438 C 21.941406 18.238281 21.4375 19.9375 21.4375 19.9375 C 21.5 20.269531 21.4375 20.496094 21.4375 20.488281 C 21.511719 20.679688 21.453125 20.921875 21.453125 20.921875 L 21.386719 20.820312 C 21.386719 20.867188 21.371094 21.035156 21.371094 21.027344 C 21.265625 20.914062 21.203125 20.710938 21.203125 20.710938 C 21.121094 21.050781 20.785156 21.394531 20.867188 21.78125 C 20.949219 22.167969 20.753906 23.402344 20.753906 23.410156 C 21.402344 24.851562 21.324219 26.414062 20.851562 27.4375 C 20.378906 28.460938 18.449219 29.230469 18.449219 29.230469 C 18.449219 29.230469 18.285156 29.546875 18.269531 29.734375 C 18.253906 29.925781 18.285156 30.421875 18.617188 31.097656 C 18.953125 31.777344 19.21875 31.839844 19.550781 31.894531 C 19.886719 31.949219 19.976562 31.980469 20.054688 32.019531 C 20.136719 32.058594 20.152344 32.128906 20.152344 32.128906 C 20.152344 32.128906 20.25 32.175781 20.511719 32.183594 C 20.769531 32.191406 20.871094 32.3125 20.90625 32.367188 C 21.027344 32.3125 21.414062 32.578125 21.414062 32.578125 L 21.332031 32.59375 C 21.332031 32.59375 21.402344 32.65625 21.414062 32.648438 C 21.167969 32.703125 20.882812 32.617188 20.882812 32.617188 C 20.882812 32.617188 20.957031 32.6875 20.957031 32.679688 C 20.835938 32.710938 20.449219 32.679688 20.4375 32.679688 C 20.371094 32.753906 19.894531 32.710938 19.894531 32.710938 C 19.746094 32.785156 19.417969 32.722656 19.246094 32.691406 C 19.074219 32.660156 18.742188 32.53125 18.554688 32.417969 C 18.308594 32.273438 17.882812 31.335938 17.882812 31.335938 C 17.882812 31.335938 17.902344 31.652344 18.121094 32.039062 C 18.335938 32.429688 18.609375 32.523438 18.964844 32.660156 C 19.324219 32.796875 19.398438 32.902344 19.441406 32.933594 C 19.484375 32.964844 19.65625 33.027344 19.808594 33.082031 C 19.960938 33.132812 20.179688 33.382812 20.179688 33.375 C 20.566406 33.480469 20.65625 33.644531 20.65625 33.632812 C 20.453125 33.65625 20.101562 33.585938 20.101562 33.585938 L 19.90625 33.585938 L 19.960938 33.625 C 19.734375 33.636719 19.414062 33.515625 19.414062 33.515625 C 19.316406 33.59375 18.796875 33.515625 18.421875 33.40625 C 18.050781 33.296875 17.9375 33.183594 17.726562 33.011719 C 17.511719 32.839844 17.253906 32.273438 17.171875 31.863281 C 17.089844 31.453125 16.765625 29.863281 16.652344 29.484375 C 16.539062 29.105469 17.058594 28.804688 17.496094 28.507812 C 17.9375 28.207031 18.441406 27.355469 18.441406 27.167969 C 18.441406 26.980469 17.773438 26.679688 17.773438 26.679688 C 17.773438 26.679688 17.367188 27.121094 16.132812 28.445312 C 14.898438 29.765625 12.820312 31.027344 10.871094 31.800781 C 8.917969 32.570312 7.085938 32.898438 5.003906 33.214844 C 3.226562 33.488281 1.734375 33.523438 1.171875 33.25 C 0.300781 32.824219 1.105469 32.601562 1.527344 32.679688 " fill-opacity="1" fill-rule="nonzero"/></g><g clip-path="url(#b760ccaf3e)"><path fill="#0f9083" d="M 2.488281 32.679688 C 2.910156 32.761719 4.371094 32.585938 5.703125 32.273438 C 7.035156 31.957031 10.042969 31.296875 12.414062 30.035156 C 14.785156 28.773438 15.460938 27.671875 16.003906 27.035156 C 16.546875 26.394531 16.695312 25.84375 16.808594 25.492188 C 16.921875 25.136719 16.945312 24.578125 16.9375 24.167969 C 16.929688 23.757812 16.785156 23.261719 16.742188 22.417969 C 16.613281 20.082031 16.9375 19.152344 17.101562 18.480469 C 17.261719 17.8125 17.472656 16.183594 17.472656 15.976562 C 17.472656 15.773438 17.214844 14.613281 17.179688 13.921875 C 17.148438 13.230469 17.085938 12.660156 16.871094 12.046875 C 16.660156 11.433594 16.5625 10.683594 16.921875 9.371094 C 17.277344 8.054688 17.390625 7.25 17.464844 6.242188 C 17.539062 5.234375 18.285156 4.148438 18.570312 3.878906 C 18.855469 3.613281 19.226562 3.148438 19.78125 3.078125 C 20.761719 2.960938 22.015625 3.414062 22.597656 3.699219 C 23.183594 3.984375 23.363281 4.265625 23.445312 4.390625 C 23.523438 4.519531 23.90625 4.832031 24.09375 4.984375 C 24.28125 5.132812 25.117188 5.613281 25.175781 5.644531 C 25.230469 5.675781 25.222656 5.816406 25.199219 5.992188 C 25.175781 6.164062 25.085938 6.210938 25.085938 6.210938 C 25.085938 6.210938 25.09375 6.3125 25.042969 6.34375 C 25.019531 6.363281 24.949219 6.363281 24.882812 6.359375 C 24.867188 6.460938 24.847656 6.554688 24.820312 6.621094 C 24.820312 6.625 24.8125 6.628906 24.808594 6.625 C 24.804688 6.625 24.800781 6.621094 24.804688 6.613281 C 24.828125 6.550781 24.851562 6.457031 24.867188 6.359375 C 24.8125 6.359375 24.769531 6.351562 24.769531 6.351562 C 24.769531 6.351562 24.78125 6.429688 24.65625 6.484375 C 24.648438 6.574219 24.628906 6.640625 24.628906 6.640625 C 24.628906 6.644531 24.625 6.648438 24.621094 6.648438 C 24.621094 6.648438 24.621094 6.648438 24.617188 6.648438 C 24.613281 6.644531 24.609375 6.640625 24.613281 6.636719 C 24.613281 6.636719 24.628906 6.574219 24.636719 6.492188 C 24.597656 6.511719 24.542969 6.523438 24.476562 6.535156 C 24.347656 6.71875 24.234375 6.851562 24.234375 6.851562 C 24.230469 6.851562 24.230469 6.855469 24.226562 6.855469 C 24.222656 6.855469 24.222656 6.851562 24.21875 6.851562 C 24.214844 6.847656 24.214844 6.84375 24.21875 6.839844 C 24.21875 6.839844 24.328125 6.714844 24.453125 6.539062 C 24.421875 6.542969 24.382812 6.546875 24.339844 6.546875 C 24.316406 6.570312 24.292969 6.59375 24.261719 6.613281 C 24.257812 6.617188 24.253906 6.617188 24.25 6.613281 C 24.246094 6.609375 24.25 6.601562 24.253906 6.601562 C 24.277344 6.585938 24.296875 6.566406 24.316406 6.550781 C 23.855469 6.582031 22.871094 6.574219 22.828125 6.589844 C 22.6875 6.644531 21.503906 6.867188 21.316406 6.808594 C 21.128906 6.753906 20.882812 6.796875 20.855469 6.863281 C 20.828125 6.929688 20.65625 7.039062 20.65625 7.03125 C 20.609375 7.402344 20.699219 8.023438 20.789062 8.226562 C 20.878906 8.433594 21.902344 9.09375 22.46875 10.0625 C 23.039062 11.03125 22.46875 12.085938 22.46875 12.085938 C 22.46875 12.085938 22.558594 12.1875 22.582031 12.84375 C 22.605469 13.496094 22.820312 14.339844 23.160156 15.054688 C 23.5 15.773438 24.003906 16.503906 24.183594 16.710938 C 24.363281 16.914062 24.402344 17.253906 24.328125 17.519531 C 24.257812 17.789062 24.207031 18.039062 24.207031 18.347656 C 24.207031 18.65625 23.890625 19.199219 23.851562 19.425781 C 23.808594 19.65625 23.726562 19.773438 23.738281 19.765625 C 23.753906 19.875 23.648438 20.007812 23.648438 20.007812 C 23.648438 20.007812 23.621094 20.097656 23.621094 20.238281 C 23.621094 20.378906 23.4375 20.601562 23.4375 20.601562 C 23.402344 20.8125 23.25 21.050781 23.25 21.042969 C 23.234375 20.960938 23.214844 20.859375 23.214844 20.859375 C 23.214844 20.859375 23.152344 20.953125 23.152344 20.945312 C 23.09375 20.679688 23.152344 20.464844 23.152344 20.464844 L 23.09375 20.386719 C 23.09375 20.386719 23.046875 20.464844 23.039062 20.449219 C 23.003906 20.167969 23.046875 20.03125 23.046875 20.03125 C 23.046875 20.03125 23.003906 19.953125 23.003906 19.9375 C 22.933594 19.929688 22.925781 19.441406 22.917969 19.144531 C 22.90625 18.84375 22.988281 18.726562 22.988281 18.71875 C 22.972656 18.625 23.144531 18.402344 23.242188 18.191406 C 23.339844 17.976562 23.25 17.890625 23.296875 17.757812 C 23.347656 17.625 23.402344 17.402344 23.371094 17.277344 C 23.339844 17.152344 22.851562 16.765625 22.84375 16.773438 C 22.898438 18.238281 22.394531 19.9375 22.394531 19.9375 C 22.460938 20.269531 22.394531 20.496094 22.394531 20.488281 C 22.46875 20.679688 22.414062 20.921875 22.414062 20.921875 L 22.347656 20.820312 C 22.347656 20.867188 22.332031 21.035156 22.332031 21.027344 C 22.226562 20.914062 22.160156 20.710938 22.160156 20.710938 C 22.078125 21.050781 21.746094 21.394531 21.828125 21.78125 C 21.910156 22.167969 21.714844 23.402344 21.714844 23.410156 C 22.363281 24.851562 22.28125 26.414062 21.8125 27.4375 C 21.339844 28.460938 19.40625 29.230469 19.40625 29.230469 C 19.40625 29.230469 19.246094 29.546875 19.226562 29.734375 C 19.210938 29.925781 19.246094 30.421875 19.578125 31.097656 C 19.910156 31.777344 20.179688 31.839844 20.511719 31.894531 C 20.84375 31.949219 20.933594 31.980469 21.015625 32.019531 C 21.097656 32.058594 21.113281 32.128906 21.113281 32.128906 C 21.113281 32.128906 21.210938 32.175781 21.46875 32.183594 C 21.730469 32.191406 21.832031 32.3125 21.867188 32.367188 C 21.984375 32.3125 22.371094 32.578125 22.371094 32.578125 L 22.289062 32.59375 C 22.289062 32.59375 22.363281 32.65625 22.371094 32.648438 C 22.128906 32.703125 21.84375 32.617188 21.84375 32.617188 C 21.84375 32.617188 21.917969 32.6875 21.917969 32.679688 C 21.796875 32.710938 21.40625 32.679688 21.398438 32.679688 C 21.332031 32.753906 20.855469 32.710938 20.855469 32.710938 C 20.703125 32.785156 20.378906 32.722656 20.207031 32.691406 C 20.03125 32.660156 19.703125 32.53125 19.511719 32.417969 C 19.265625 32.273438 18.839844 31.335938 18.839844 31.335938 C 18.839844 31.335938 18.863281 31.652344 19.078125 32.039062 C 19.296875 32.429688 19.566406 32.523438 19.925781 32.660156 C 20.28125 32.796875 20.355469 32.902344 20.402344 32.933594 C 20.445312 32.964844 20.617188 33.027344 20.769531 33.082031 C 20.921875 33.132812 21.136719 33.382812 21.136719 33.375 C 21.527344 33.480469 21.617188 33.644531 21.617188 33.632812 C 21.410156 33.65625 21.0625 33.585938 21.0625 33.585938 L 20.867188 33.585938 L 20.921875 33.625 C 20.691406 33.636719 20.375 33.515625 20.375 33.515625 C 20.277344 33.59375 19.757812 33.515625 19.382812 33.40625 C 19.007812 33.296875 18.894531 33.183594 18.683594 33.011719 C 18.472656 32.839844 18.214844 32.273438 18.132812 31.863281 C 18.050781 31.453125 17.726562 29.863281 17.613281 29.484375 C 17.5 29.105469 18.019531 28.804688 18.457031 28.507812 C 18.894531 28.207031 19.398438 27.355469 19.398438 27.167969 C 19.398438 26.980469 18.734375 26.679688 18.734375 26.679688 C 18.734375 26.679688 18.328125 27.121094 17.09375 28.445312 C 15.855469 29.765625 13.777344 31.027344 11.828125 31.800781 C 9.878906 32.570312 8.046875 32.898438 5.964844 33.214844 C 4.183594 33.488281 2.695312 33.523438 2.128906 33.25 C 1.261719 32.824219 2.066406 32.601562 2.488281 32.679688 " fill-opacity="1" fill-rule="nonzero"/></g><g fill="#ffffff" fill-opacity="1"><g transform="translate(26.297018, 21.463816)"><g><path d="M 3.671875 -6.78125 C 6.046875 -6.78125 7.234375 -5.648438 7.234375 -3.390625 C 7.234375 -1.128906 6.046875 0 3.671875 0 L 0.734375 0 L 0.734375 -6.78125 Z M 2.90625 -1.625 L 3.625 -1.625 C 4.539062 -1.625 5 -2.113281 5 -3.09375 L 5 -3.6875 C 5 -4.664062 4.539062 -5.15625 3.625 -5.15625 L 2.90625 -5.15625 Z M 2.90625 -1.625 "/></g></g></g><g fill="#ffffff" fill-opacity="1"><g transform="translate(33.971626, 21.463816)"><g><path d="M 3.171875 -5.328125 C 3.960938 -5.328125 4.609375 -5.191406 5.109375 -4.921875 C 5.609375 -4.660156 5.859375 -4.226562 5.859375 -3.625 L 5.859375 -1.59375 C 5.859375 -1.476562 5.882812 -1.382812 5.9375 -1.3125 C 5.988281 -1.25 6.066406 -1.21875 6.171875 -1.21875 L 6.53125 -1.21875 L 6.53125 -0.078125 C 6.507812 -0.0664062 6.457031 -0.046875 6.375 -0.015625 C 6.289062 0.015625 6.171875 0.046875 6.015625 0.078125 C 5.867188 0.109375 5.695312 0.125 5.5 0.125 C 5.113281 0.125 4.796875 0.0664062 4.546875 -0.046875 C 4.304688 -0.171875 4.140625 -0.332031 4.046875 -0.53125 C 3.796875 -0.332031 3.515625 -0.171875 3.203125 -0.046875 C 2.898438 0.0664062 2.539062 0.125 2.125 0.125 C 0.90625 0.125 0.296875 -0.363281 0.296875 -1.34375 C 0.296875 -1.84375 0.429688 -2.226562 0.703125 -2.5 C 0.972656 -2.769531 1.363281 -2.953125 1.875 -3.046875 C 2.394531 -3.140625 3.066406 -3.1875 3.890625 -3.1875 L 3.890625 -3.453125 C 3.890625 -3.648438 3.816406 -3.800781 3.671875 -3.90625 C 3.535156 -4.019531 3.359375 -4.078125 3.140625 -4.078125 C 2.929688 -4.078125 2.753906 -4.039062 2.609375 -3.96875 C 2.460938 -3.894531 2.390625 -3.78125 2.390625 -3.625 L 2.390625 -3.578125 L 0.453125 -3.578125 C 0.441406 -3.609375 0.4375 -3.65625 0.4375 -3.71875 C 0.4375 -4.207031 0.671875 -4.597656 1.140625 -4.890625 C 1.617188 -5.179688 2.296875 -5.328125 3.171875 -5.328125 Z M 3.890625 -2.265625 C 3.335938 -2.265625 2.925781 -2.203125 2.65625 -2.078125 C 2.382812 -1.960938 2.25 -1.800781 2.25 -1.59375 C 2.25 -1.269531 2.472656 -1.109375 2.921875 -1.109375 C 3.179688 -1.109375 3.40625 -1.175781 3.59375 -1.3125 C 3.789062 -1.445312 3.890625 -1.617188 3.890625 -1.828125 Z M 3.890625 -2.265625 "/></g></g></g><g fill="#ffffff" fill-opacity="1"><g transform="translate(40.55127, 21.463816)"><g><path d="M 4.0625 -5.203125 L 4.0625 -3.875 L 2.953125 -3.875 L 2.953125 -1.890625 C 2.953125 -1.648438 2.988281 -1.476562 3.0625 -1.375 C 3.144531 -1.269531 3.296875 -1.21875 3.515625 -1.21875 L 4.0625 -1.21875 L 4.0625 -0.0625 C 3.90625 -0.0078125 3.703125 0.03125 3.453125 0.0625 C 3.203125 0.101562 2.984375 0.125 2.796875 0.125 C 2.222656 0.125 1.78125 0.0195312 1.46875 -0.1875 C 1.15625 -0.40625 1 -0.765625 1 -1.265625 L 1 -3.875 L 0.265625 -3.875 L 0.265625 -5.203125 L 1.078125 -5.203125 L 1.5 -6.78125 L 2.953125 -6.78125 L 2.953125 -5.203125 Z M 4.0625 -5.203125 "/></g></g></g><g fill="#ffffff" fill-opacity="1"><g transform="translate(44.93112, 21.463816)"><g><path d="M 3.171875 -5.328125 C 3.960938 -5.328125 4.609375 -5.191406 5.109375 -4.921875 C 5.609375 -4.660156 5.859375 -4.226562 5.859375 -3.625 L 5.859375 -1.59375 C 5.859375 -1.476562 5.882812 -1.382812 5.9375 -1.3125 C 5.988281 -1.25 6.066406 -1.21875 6.171875 -1.21875 L 6.53125 -1.21875 L 6.53125 -0.078125 C 6.507812 -0.0664062 6.457031 -0.046875 6.375 -0.015625 C 6.289062 0.015625 6.171875 0.046875 6.015625 0.078125 C 5.867188 0.109375 5.695312 0.125 5.5 0.125 C 5.113281 0.125 4.796875 0.0664062 4.546875 -0.046875 C 4.304688 -0.171875 4.140625 -0.332031 4.046875 -0.53125 C 3.796875 -0.332031 3.515625 -0.171875 3.203125 -0.046875 C 2.898438 0.0664062 2.539062 0.125 2.125 0.125 C 0.90625 0.125 0.296875 -0.363281 0.296875 -1.34375 C 0.296875 -1.84375 0.429688 -2.226562 0.703125 -2.5 C 0.972656 -2.769531 1.363281 -2.953125 1.875 -3.046875 C 2.394531 -3.140625 3.066406 -3.1875 3.890625 -3.1875 L 3.890625 -3.453125 C 3.890625 -3.648438 3.816406 -3.800781 3.671875 -3.90625 C 3.535156 -4.019531 3.359375 -4.078125 3.140625 -4.078125 C 2.929688 -4.078125 2.753906 -4.039062 2.609375 -3.96875 C 2.460938 -3.894531 2.390625 -3.78125 2.390625 -3.625 L 2.390625 -3.578125 L 0.453125 -3.578125 C 0.441406 -3.609375 0.4375 -3.65625 0.4375 -3.71875 C 0.4375 -4.207031 0.671875 -4.597656 1.140625 -4.890625 C 1.617188 -5.179688 2.296875 -5.328125 3.171875 -5.328125 Z M 3.890625 -2.265625 C 3.335938 -2.265625 2.925781 -2.203125 2.65625 -2.078125 C 2.382812 -1.960938 2.25 -1.800781 2.25 -1.59375 C 2.25 -1.269531 2.472656 -1.109375 2.921875 -1.109375 C 3.179688 -1.109375 3.40625 -1.175781 3.59375 -1.3125 C 3.789062 -1.445312 3.890625 -1.617188 3.890625 -1.828125 Z M 3.890625 -2.265625 "/></g></g></g><g fill="#ffffff" fill-opacity="1"><g transform="translate(51.510765, 21.463816)"><g/></g></g><g fill="#ffffff" fill-opacity="1"><g transform="translate(54.795652, 21.463816)"><g><path d="M 6.5625 0 L 6.5625 -2.4375 C 6.5625 -2.75 6.570312 -3.0625 6.59375 -3.375 C 6.613281 -3.695312 6.632812 -3.960938 6.65625 -4.171875 C 6.6875 -4.390625 6.707031 -4.53125 6.71875 -4.59375 L 6.671875 -4.59375 L 5.421875 0 L 3.71875 0 L 2.453125 -4.578125 L 2.421875 -4.578125 C 2.421875 -4.523438 2.4375 -4.390625 2.46875 -4.171875 C 2.5 -3.960938 2.523438 -3.695312 2.546875 -3.375 C 2.578125 -3.0625 2.59375 -2.75 2.59375 -2.4375 L 2.59375 0 L 0.59375 0 L 0.59375 -6.78125 L 3.671875 -6.78125 L 4.6875 -2.875 L 4.734375 -2.875 L 5.75 -6.78125 L 8.71875 -6.78125 L 8.71875 0 Z M 6.5625 0 "/></g></g></g><g fill="#ffffff" fill-opacity="1"><g transform="translate(64.107773, 21.463816)"><g><path d="M 3.28125 -5.328125 C 4.238281 -5.328125 4.96875 -5.101562 5.46875 -4.65625 C 5.96875 -4.207031 6.21875 -3.523438 6.21875 -2.609375 L 6.21875 -2.265625 L 2.3125 -2.265625 C 2.3125 -1.890625 2.394531 -1.609375 2.5625 -1.421875 C 2.726562 -1.234375 2.992188 -1.140625 3.359375 -1.140625 C 3.691406 -1.140625 3.929688 -1.207031 4.078125 -1.34375 C 4.234375 -1.476562 4.3125 -1.660156 4.3125 -1.890625 L 6.21875 -1.890625 C 6.21875 -1.265625 5.976562 -0.769531 5.5 -0.40625 C 5.019531 -0.0507812 4.320312 0.125 3.40625 0.125 C 2.4375 0.125 1.6875 -0.0976562 1.15625 -0.546875 C 0.625 -1.003906 0.359375 -1.691406 0.359375 -2.609375 C 0.359375 -3.492188 0.613281 -4.164062 1.125 -4.625 C 1.644531 -5.09375 2.363281 -5.328125 3.28125 -5.328125 Z M 3.359375 -4.078125 C 2.742188 -4.078125 2.398438 -3.78125 2.328125 -3.1875 L 4.234375 -3.1875 C 4.234375 -3.457031 4.15625 -3.671875 4 -3.828125 C 3.851562 -3.992188 3.640625 -4.078125 3.359375 -4.078125 Z M 3.359375 -4.078125 "/></g></g></g><g fill="#ffffff" fill-opacity="1"><g transform="translate(70.687418, 21.463816)"><g><path d="M 3.28125 -5.328125 C 4.238281 -5.328125 4.96875 -5.101562 5.46875 -4.65625 C 5.96875 -4.207031 6.21875 -3.523438 6.21875 -2.609375 L 6.21875 -2.265625 L 2.3125 -2.265625 C 2.3125 -1.890625 2.394531 -1.609375 2.5625 -1.421875 C 2.726562 -1.234375 2.992188 -1.140625 3.359375 -1.140625 C 3.691406 -1.140625 3.929688 -1.207031 4.078125 -1.34375 C 4.234375 -1.476562 4.3125 -1.660156 4.3125 -1.890625 L 6.21875 -1.890625 C 6.21875 -1.265625 5.976562 -0.769531 5.5 -0.40625 C 5.019531 -0.0507812 4.320312 0.125 3.40625 0.125 C 2.4375 0.125 1.6875 -0.0976562 1.15625 -0.546875 C 0.625 -1.003906 0.359375 -1.691406 0.359375 -2.609375 C 0.359375 -3.492188 0.613281 -4.164062 1.125 -4.625 C 1.644531 -5.09375 2.363281 -5.328125 3.28125 -5.328125 Z M 3.359375 -4.078125 C 2.742188 -4.078125 2.398438 -3.78125 2.328125 -3.1875 L 4.234375 -3.1875 C 4.234375 -3.457031 4.15625 -3.671875 4 -3.828125 C 3.851562 -3.992188 3.640625 -4.078125 3.359375 -4.078125 Z M 3.359375 -4.078125 "/></g></g></g><g fill="#ffffff" fill-opacity="1"><g transform="translate(77.267062, 21.463816)"><g><path d="M 3.75 -5.328125 C 3.90625 -5.328125 4.039062 -5.304688 4.15625 -5.265625 C 4.28125 -5.234375 4.34375 -5.21875 4.34375 -5.21875 L 4.34375 -3.5625 L 3.703125 -3.5625 C 3.296875 -3.5625 3 -3.457031 2.8125 -3.25 C 2.632812 -3.039062 2.546875 -2.726562 2.546875 -2.3125 L 2.546875 0 L 0.59375 0 L 0.59375 -5.203125 L 2.203125 -5.203125 L 2.328125 -4.421875 C 2.441406 -4.722656 2.625 -4.945312 2.875 -5.09375 C 3.132812 -5.25 3.425781 -5.328125 3.75 -5.328125 Z M 3.75 -5.328125 "/></g></g></g><g fill="#ffffff" fill-opacity="1"><g transform="translate(81.646912, 21.463816)"><g><path d="M 4.21875 -5.203125 L 6.5 -5.203125 L 4.578125 -3.109375 L 6.5625 0 L 4.328125 0 L 3.234375 -1.78125 L 2.546875 -1.125 L 2.546875 0 L 0.59375 0 L 0.59375 -7.15625 L 2.546875 -7.15625 L 2.546875 -3.21875 Z M 4.21875 -5.203125 "/></g></g></g><g fill="#ffffff" fill-opacity="1"><g transform="translate(88.226557, 21.463816)"><g><path d="M 3.171875 -5.328125 C 3.960938 -5.328125 4.609375 -5.191406 5.109375 -4.921875 C 5.609375 -4.660156 5.859375 -4.226562 5.859375 -3.625 L 5.859375 -1.59375 C 5.859375 -1.476562 5.882812 -1.382812 5.9375 -1.3125 C 5.988281 -1.25 6.066406 -1.21875 6.171875 -1.21875 L 6.53125 -1.21875 L 6.53125 -0.078125 C 6.507812 -0.0664062 6.457031 -0.046875 6.375 -0.015625 C 6.289062 0.015625 6.171875 0.046875 6.015625 0.078125 C 5.867188 0.109375 5.695312 0.125 5.5 0.125 C 5.113281 0.125 4.796875 0.0664062 4.546875 -0.046875 C 4.304688 -0.171875 4.140625 -0.332031 4.046875 -0.53125 C 3.796875 -0.332031 3.515625 -0.171875 3.203125 -0.046875 C 2.898438 0.0664062 2.539062 0.125 2.125 0.125 C 0.90625 0.125 0.296875 -0.363281 0.296875 -1.34375 C 0.296875 -1.84375 0.429688 -2.226562 0.703125 -2.5 C 0.972656 -2.769531 1.363281 -2.953125 1.875 -3.046875 C 2.394531 -3.140625 3.066406 -3.1875 3.890625 -3.1875 L 3.890625 -3.453125 C 3.890625 -3.648438 3.816406 -3.800781 3.671875 -3.90625 C 3.535156 -4.019531 3.359375 -4.078125 3.140625 -4.078125 C 2.929688 -4.078125 2.753906 -4.039062 2.609375 -3.96875 C 2.460938 -3.894531 2.390625 -3.78125 2.390625 -3.625 L 2.390625 -3.578125 L 0.453125 -3.578125 C 0.441406 -3.609375 0.4375 -3.65625 0.4375 -3.71875 C 0.4375 -4.207031 0.671875 -4.597656 1.140625 -4.890625 C 1.617188 -5.179688 2.296875 -5.328125 3.171875 -5.328125 Z M 3.890625 -2.265625 C 3.335938 -2.265625 2.925781 -2.203125 2.65625 -2.078125 C 2.382812 -1.960938 2.25 -1.800781 2.25 -1.59375 C 2.25 -1.269531 2.472656 -1.109375 2.921875 -1.109375 C 3.179688 -1.109375 3.40625 -1.175781 3.59375 -1.3125 C 3.789062 -1.445312 3.890625 -1.617188 3.890625 -1.828125 Z M 3.890625 -2.265625 "/></g></g></g><g fill="#ffffff" fill-opacity="1"><g transform="translate(94.806201, 21.463816)"><g><path d="M 4.0625 -5.203125 L 4.0625 -3.875 L 2.953125 -3.875 L 2.953125 -1.890625 C 2.953125 -1.648438 2.988281 -1.476562 3.0625 -1.375 C 3.144531 -1.269531 3.296875 -1.21875 3.515625 -1.21875 L 4.0625 -1.21875 L 4.0625 -0.0625 C 3.90625 -0.0078125 3.703125 0.03125 3.453125 0.0625 C 3.203125 0.101562 2.984375 0.125 2.796875 0.125 C 2.222656 0.125 1.78125 0.0195312 1.46875 -0.1875 C 1.15625 -0.40625 1 -0.765625 1 -1.265625 L 1 -3.875 L 0.265625 -3.875 L 0.265625 -5.203125 L 1.078125 -5.203125 L 1.5 -6.78125 L 2.953125 -6.78125 L 2.953125 -5.203125 Z M 4.0625 -5.203125 "/></g></g></g></svg>