<svg xmlns="http://www.w3.org/2000/svg" xmlns:xlink="http://www.w3.org/1999/xlink" width="135" zoomAndPan="magnify" viewBox="0 0 101.25 37.5" height="50" preserveAspectRatio="xMidYMid meet" version="1.0"><defs><g/><clipPath id="de455fd067"><path d="M 3.257812 6.507812 L 21.761719 6.507812 L 21.761719 30.195312 L 3.257812 30.195312 Z M 3.257812 6.507812 " clip-rule="nonzero"/></clipPath><clipPath id="3a11cd3264"><path d="M 4 6.507812 L 22.5 6.507812 L 22.5 30.195312 L 4 30.195312 Z M 4 6.507812 " clip-rule="nonzero"/></clipPath></defs><g clip-path="url(#de455fd067)"><path fill="#fdd504" d="M 4.207031 29.441406 C 4.53125 29.503906 5.660156 29.371094 6.6875 29.125 C 7.71875 28.882812 10.035156 28.371094 11.867188 27.402344 C 13.695312 26.429688 14.214844 25.578125 14.636719 25.085938 C 15.054688 24.59375 15.167969 24.167969 15.257812 23.894531 C 15.34375 23.621094 15.363281 23.191406 15.355469 22.875 C 15.351562 22.558594 15.238281 22.175781 15.207031 21.523438 C 15.105469 19.71875 15.355469 19.003906 15.480469 18.488281 C 15.605469 17.96875 15.769531 16.710938 15.769531 16.554688 C 15.769531 16.394531 15.570312 15.503906 15.542969 14.96875 C 15.519531 14.433594 15.46875 13.996094 15.304688 13.523438 C 15.144531 13.046875 15.066406 12.472656 15.34375 11.457031 C 15.621094 10.441406 15.707031 9.820312 15.765625 9.042969 C 15.820312 8.265625 16.398438 7.425781 16.617188 7.222656 C 16.835938 7.015625 17.125 6.65625 17.550781 6.601562 C 18.308594 6.511719 19.273438 6.863281 19.726562 7.082031 C 20.175781 7.300781 20.3125 7.519531 20.375 7.617188 C 20.4375 7.714844 20.734375 7.957031 20.878906 8.070312 C 21.023438 8.1875 21.667969 8.558594 21.710938 8.582031 C 21.753906 8.605469 21.75 8.714844 21.730469 8.847656 C 21.710938 8.984375 21.640625 9.019531 21.640625 9.019531 C 21.640625 9.019531 21.648438 9.097656 21.609375 9.121094 C 21.59375 9.136719 21.535156 9.136719 21.488281 9.136719 C 21.476562 9.210938 21.460938 9.28125 21.4375 9.335938 C 21.4375 9.339844 21.433594 9.339844 21.429688 9.339844 C 21.425781 9.335938 21.425781 9.332031 21.425781 9.332031 C 21.445312 9.28125 21.460938 9.210938 21.472656 9.132812 C 21.433594 9.132812 21.398438 9.128906 21.398438 9.128906 C 21.398438 9.128906 21.410156 9.1875 21.3125 9.230469 C 21.304688 9.296875 21.292969 9.351562 21.292969 9.351562 C 21.289062 9.355469 21.289062 9.355469 21.285156 9.355469 C 21.285156 9.355469 21.285156 9.355469 21.28125 9.355469 C 21.277344 9.355469 21.277344 9.351562 21.277344 9.347656 C 21.277344 9.347656 21.292969 9.300781 21.296875 9.238281 C 21.265625 9.25 21.226562 9.261719 21.171875 9.269531 C 21.074219 9.410156 20.984375 9.511719 20.984375 9.511719 C 20.984375 9.515625 20.980469 9.515625 20.980469 9.515625 C 20.976562 9.515625 20.976562 9.515625 20.976562 9.515625 C 20.972656 9.511719 20.972656 9.507812 20.976562 9.503906 C 20.976562 9.503906 21.058594 9.40625 21.15625 9.269531 C 21.128906 9.273438 21.101562 9.277344 21.070312 9.277344 C 21.050781 9.296875 21.03125 9.316406 21.007812 9.332031 C 21.003906 9.332031 21 9.332031 21 9.328125 C 20.996094 9.324219 20.996094 9.320312 21 9.320312 C 21.019531 9.308594 21.035156 9.292969 21.046875 9.28125 C 20.695312 9.304688 19.933594 9.300781 19.898438 9.3125 C 19.792969 9.355469 18.878906 9.523438 18.734375 9.480469 C 18.589844 9.4375 18.398438 9.472656 18.378906 9.523438 C 18.359375 9.574219 18.226562 9.65625 18.226562 9.652344 C 18.1875 9.9375 18.257812 10.417969 18.328125 10.574219 C 18.394531 10.734375 19.1875 11.242188 19.625 11.992188 C 20.0625 12.738281 19.625 13.550781 19.625 13.550781 C 19.625 13.550781 19.695312 13.632812 19.710938 14.136719 C 19.730469 14.640625 19.894531 15.289062 20.15625 15.84375 C 20.421875 16.394531 20.808594 16.960938 20.945312 17.121094 C 21.085938 17.277344 21.117188 17.539062 21.058594 17.746094 C 21.003906 17.953125 20.964844 18.144531 20.964844 18.382812 C 20.964844 18.621094 20.722656 19.039062 20.691406 19.214844 C 20.660156 19.390625 20.597656 19.484375 20.601562 19.476562 C 20.613281 19.5625 20.53125 19.664062 20.53125 19.664062 C 20.53125 19.664062 20.515625 19.730469 20.515625 19.839844 C 20.515625 19.949219 20.371094 20.121094 20.371094 20.121094 C 20.34375 20.285156 20.226562 20.46875 20.226562 20.460938 C 20.214844 20.402344 20.199219 20.320312 20.199219 20.320312 C 20.199219 20.320312 20.152344 20.394531 20.152344 20.386719 C 20.105469 20.183594 20.152344 20.019531 20.152344 20.019531 L 20.105469 19.957031 C 20.105469 19.957031 20.070312 20.019531 20.0625 20.003906 C 20.039062 19.785156 20.070312 19.683594 20.070312 19.683594 C 20.070312 19.683594 20.039062 19.621094 20.039062 19.609375 C 19.980469 19.605469 19.976562 19.226562 19.96875 18.996094 C 19.964844 18.765625 20.027344 18.675781 20.027344 18.667969 C 20.011719 18.597656 20.144531 18.425781 20.21875 18.261719 C 20.296875 18.097656 20.226562 18.03125 20.265625 17.925781 C 20.300781 17.824219 20.34375 17.652344 20.320312 17.558594 C 20.296875 17.460938 19.917969 17.160156 19.914062 17.167969 C 19.957031 18.296875 19.566406 19.609375 19.566406 19.609375 C 19.617188 19.867188 19.566406 20.042969 19.566406 20.035156 C 19.625 20.183594 19.582031 20.371094 19.582031 20.371094 L 19.53125 20.292969 C 19.53125 20.328125 19.519531 20.457031 19.519531 20.449219 C 19.4375 20.363281 19.386719 20.207031 19.386719 20.207031 C 19.324219 20.46875 19.066406 20.734375 19.128906 21.03125 C 19.191406 21.332031 19.042969 22.285156 19.042969 22.289062 C 19.542969 23.402344 19.480469 24.605469 19.117188 25.394531 C 18.753906 26.183594 17.261719 26.78125 17.261719 26.78125 C 17.261719 26.78125 17.136719 27.023438 17.125 27.167969 C 17.113281 27.316406 17.136719 27.699219 17.394531 28.222656 C 17.648438 28.742188 17.855469 28.792969 18.113281 28.835938 C 18.371094 28.878906 18.441406 28.902344 18.503906 28.933594 C 18.566406 28.960938 18.578125 29.015625 18.578125 29.015625 C 18.578125 29.015625 18.652344 29.054688 18.855469 29.058594 C 19.054688 29.066406 19.132812 29.15625 19.160156 29.199219 C 19.25 29.15625 19.550781 29.363281 19.550781 29.363281 L 19.488281 29.375 C 19.488281 29.375 19.542969 29.425781 19.550781 29.417969 C 19.359375 29.460938 19.140625 29.394531 19.140625 29.394531 C 19.140625 29.394531 19.199219 29.449219 19.199219 29.441406 C 19.105469 29.464844 18.804688 29.441406 18.796875 29.441406 C 18.746094 29.5 18.378906 29.464844 18.378906 29.464844 C 18.261719 29.523438 18.011719 29.476562 17.878906 29.449219 C 17.746094 29.425781 17.488281 29.328125 17.34375 29.238281 C 17.152344 29.128906 16.824219 28.40625 16.824219 28.40625 C 16.824219 28.40625 16.84375 28.648438 17.007812 28.949219 C 17.175781 29.246094 17.386719 29.320312 17.660156 29.425781 C 17.9375 29.53125 17.996094 29.613281 18.027344 29.636719 C 18.0625 29.660156 18.195312 29.710938 18.3125 29.75 C 18.429688 29.789062 18.597656 29.984375 18.597656 29.976562 C 18.898438 30.058594 18.96875 30.183594 18.96875 30.175781 C 18.808594 30.195312 18.539062 30.140625 18.539062 30.140625 L 18.386719 30.140625 L 18.429688 30.171875 C 18.253906 30.179688 18.007812 30.085938 18.007812 30.085938 C 17.933594 30.148438 17.53125 30.085938 17.242188 30 C 16.953125 29.917969 16.867188 29.832031 16.703125 29.699219 C 16.539062 29.5625 16.339844 29.125 16.277344 28.808594 C 16.214844 28.496094 15.964844 27.265625 15.875 26.976562 C 15.789062 26.683594 16.191406 26.453125 16.527344 26.222656 C 16.867188 25.992188 17.253906 25.335938 17.253906 25.1875 C 17.253906 25.042969 16.742188 24.8125 16.742188 24.8125 C 16.742188 24.8125 16.429688 25.152344 15.476562 26.171875 C 14.523438 27.195312 12.917969 28.167969 11.414062 28.761719 C 9.910156 29.355469 8.496094 29.609375 6.890625 29.855469 C 5.515625 30.066406 4.367188 30.09375 3.929688 29.878906 C 3.261719 29.550781 3.882812 29.382812 4.207031 29.441406 " fill-opacity="1" fill-rule="nonzero"/></g><g clip-path="url(#3a11cd3264)"><path fill="#0f9083" d="M 4.949219 29.441406 C 5.273438 29.503906 6.402344 29.371094 7.429688 29.125 C 8.457031 28.882812 10.777344 28.371094 12.605469 27.402344 C 14.4375 26.429688 14.957031 25.578125 15.375 25.085938 C 15.796875 24.59375 15.910156 24.167969 15.996094 23.894531 C 16.085938 23.621094 16.101562 23.191406 16.097656 22.875 C 16.089844 22.558594 15.976562 22.175781 15.945312 21.523438 C 15.847656 19.71875 16.097656 19.003906 16.222656 18.488281 C 16.347656 17.96875 16.511719 16.710938 16.511719 16.554688 C 16.511719 16.394531 16.308594 15.503906 16.285156 14.96875 C 16.257812 14.433594 16.210938 13.996094 16.046875 13.523438 C 15.882812 13.046875 15.808594 12.472656 16.085938 11.457031 C 16.359375 10.441406 16.449219 9.820312 16.503906 9.042969 C 16.558594 8.265625 17.136719 7.425781 17.355469 7.222656 C 17.574219 7.015625 17.863281 6.65625 18.289062 6.601562 C 19.046875 6.511719 20.011719 6.863281 20.464844 7.082031 C 20.917969 7.300781 21.054688 7.519531 21.117188 7.617188 C 21.179688 7.714844 21.472656 7.957031 21.617188 8.070312 C 21.761719 8.1875 22.40625 8.558594 22.453125 8.582031 C 22.496094 8.605469 22.488281 8.714844 22.46875 8.847656 C 22.453125 8.984375 22.382812 9.019531 22.382812 9.019531 C 22.382812 9.019531 22.390625 9.097656 22.351562 9.121094 C 22.332031 9.136719 22.277344 9.136719 22.226562 9.136719 C 22.214844 9.210938 22.199219 9.28125 22.179688 9.335938 C 22.179688 9.339844 22.175781 9.339844 22.171875 9.339844 C 22.167969 9.335938 22.164062 9.332031 22.167969 9.332031 C 22.1875 9.28125 22.203125 9.210938 22.214844 9.132812 C 22.171875 9.132812 22.136719 9.128906 22.136719 9.128906 C 22.136719 9.128906 22.148438 9.1875 22.050781 9.230469 C 22.046875 9.296875 22.03125 9.351562 22.03125 9.351562 C 22.03125 9.355469 22.027344 9.355469 22.023438 9.355469 C 22.019531 9.355469 22.015625 9.351562 22.019531 9.347656 C 22.019531 9.347656 22.03125 9.300781 22.035156 9.238281 C 22.003906 9.25 21.964844 9.261719 21.914062 9.269531 C 21.8125 9.410156 21.726562 9.511719 21.726562 9.511719 C 21.722656 9.515625 21.722656 9.515625 21.71875 9.515625 C 21.71875 9.515625 21.71875 9.515625 21.714844 9.515625 C 21.710938 9.511719 21.710938 9.507812 21.714844 9.503906 C 21.714844 9.503906 21.796875 9.40625 21.894531 9.269531 C 21.871094 9.273438 21.839844 9.277344 21.808594 9.277344 C 21.789062 9.296875 21.769531 9.316406 21.75 9.332031 C 21.746094 9.332031 21.742188 9.332031 21.738281 9.328125 C 21.738281 9.324219 21.738281 9.320312 21.742188 9.320312 C 21.757812 9.308594 21.773438 9.292969 21.789062 9.28125 C 21.433594 9.304688 20.671875 9.300781 20.640625 9.3125 C 20.535156 9.355469 19.617188 9.523438 19.476562 9.480469 C 19.332031 9.4375 19.140625 9.472656 19.117188 9.523438 C 19.097656 9.574219 18.96875 9.65625 18.96875 9.652344 C 18.929688 9.9375 19 10.417969 19.066406 10.574219 C 19.136719 10.734375 19.925781 11.242188 20.363281 11.992188 C 20.804688 12.738281 20.363281 13.550781 20.363281 13.550781 C 20.363281 13.550781 20.433594 13.632812 20.453125 14.136719 C 20.472656 14.640625 20.632812 15.289062 20.898438 15.84375 C 21.160156 16.394531 21.550781 16.960938 21.6875 17.121094 C 21.824219 17.277344 21.855469 17.539062 21.800781 17.746094 C 21.742188 17.953125 21.707031 18.144531 21.707031 18.382812 C 21.707031 18.621094 21.460938 19.039062 21.429688 19.214844 C 21.398438 19.390625 21.335938 19.484375 21.34375 19.476562 C 21.355469 19.5625 21.273438 19.664062 21.273438 19.664062 C 21.273438 19.664062 21.253906 19.730469 21.253906 19.839844 C 21.253906 19.949219 21.109375 20.121094 21.109375 20.121094 C 21.085938 20.285156 20.964844 20.46875 20.964844 20.460938 C 20.953125 20.402344 20.941406 20.320312 20.941406 20.320312 C 20.941406 20.320312 20.890625 20.394531 20.890625 20.386719 C 20.847656 20.183594 20.890625 20.019531 20.890625 20.019531 L 20.847656 19.957031 C 20.847656 19.957031 20.808594 20.019531 20.804688 20.003906 C 20.777344 19.785156 20.808594 19.683594 20.808594 19.683594 C 20.808594 19.683594 20.777344 19.621094 20.777344 19.609375 C 20.722656 19.605469 20.714844 19.226562 20.710938 18.996094 C 20.703125 18.765625 20.765625 18.675781 20.765625 18.667969 C 20.753906 18.597656 20.882812 18.425781 20.960938 18.261719 C 21.035156 18.097656 20.964844 18.03125 21.003906 17.925781 C 21.042969 17.824219 21.085938 17.652344 21.058594 17.558594 C 21.035156 17.460938 20.660156 17.160156 20.652344 17.167969 C 20.695312 18.296875 20.308594 19.609375 20.308594 19.609375 C 20.359375 19.867188 20.308594 20.042969 20.308594 20.035156 C 20.363281 20.183594 20.320312 20.371094 20.320312 20.371094 L 20.269531 20.292969 C 20.269531 20.328125 20.257812 20.457031 20.257812 20.449219 C 20.175781 20.363281 20.125 20.207031 20.125 20.207031 C 20.0625 20.46875 19.808594 20.734375 19.871094 21.03125 C 19.933594 21.332031 19.78125 22.285156 19.78125 22.289062 C 20.28125 23.402344 20.21875 24.605469 19.855469 25.394531 C 19.492188 26.183594 18 26.78125 18 26.78125 C 18 26.78125 17.875 27.023438 17.863281 27.167969 C 17.851562 27.316406 17.875 27.699219 18.132812 28.222656 C 18.390625 28.742188 18.597656 28.792969 18.855469 28.835938 C 19.109375 28.878906 19.179688 28.902344 19.242188 28.933594 C 19.304688 28.960938 19.316406 29.015625 19.316406 29.015625 C 19.316406 29.015625 19.394531 29.054688 19.59375 29.058594 C 19.792969 29.066406 19.871094 29.15625 19.898438 29.199219 C 19.992188 29.15625 20.289062 29.363281 20.289062 29.363281 L 20.226562 29.375 C 20.226562 29.375 20.28125 29.425781 20.289062 29.417969 C 20.101562 29.460938 19.882812 29.394531 19.882812 29.394531 C 19.882812 29.394531 19.9375 29.449219 19.9375 29.441406 C 19.84375 29.464844 19.546875 29.441406 19.539062 29.441406 C 19.488281 29.5 19.121094 29.464844 19.121094 29.464844 C 19.003906 29.523438 18.75 29.476562 18.617188 29.449219 C 18.484375 29.425781 18.230469 29.328125 18.082031 29.238281 C 17.894531 29.128906 17.566406 28.40625 17.566406 28.40625 C 17.566406 28.40625 17.582031 28.648438 17.75 28.949219 C 17.917969 29.246094 18.125 29.320312 18.402344 29.425781 C 18.675781 29.53125 18.734375 29.613281 18.769531 29.636719 C 18.800781 29.660156 18.9375 29.710938 19.050781 29.75 C 19.167969 29.789062 19.335938 29.984375 19.335938 29.976562 C 19.636719 30.058594 19.707031 30.183594 19.707031 30.175781 C 19.546875 30.195312 19.277344 30.140625 19.277344 30.140625 L 19.128906 30.140625 L 19.167969 30.171875 C 18.996094 30.179688 18.746094 30.085938 18.746094 30.085938 C 18.671875 30.148438 18.269531 30.085938 17.984375 30 C 17.695312 29.917969 17.605469 29.832031 17.445312 29.699219 C 17.28125 29.5625 17.082031 29.125 17.019531 28.808594 C 16.957031 28.496094 16.703125 27.265625 16.617188 26.976562 C 16.527344 26.683594 16.929688 26.453125 17.269531 26.222656 C 17.605469 25.992188 17.996094 25.335938 17.996094 25.1875 C 17.996094 25.042969 17.480469 24.8125 17.480469 24.8125 C 17.480469 24.8125 17.167969 25.152344 16.214844 26.171875 C 15.261719 27.195312 13.660156 28.167969 12.15625 28.761719 C 10.652344 29.355469 9.234375 29.609375 7.628906 29.855469 C 6.257812 30.066406 5.109375 30.09375 4.671875 29.878906 C 4 29.550781 4.621094 29.382812 4.949219 29.441406 " fill-opacity="1" fill-rule="nonzero"/></g><g fill="#ffffff" fill-opacity="1"><g transform="translate(28.071802, 21.463816)"><g><path d="M 3.296875 -6.109375 C 5.429688 -6.109375 6.5 -5.085938 6.5 -3.046875 C 6.5 -1.015625 5.429688 0 3.296875 0 L 0.65625 0 L 0.65625 -6.109375 Z M 2.625 -1.46875 L 3.265625 -1.46875 C 4.085938 -1.46875 4.5 -1.90625 4.5 -2.78125 L 4.5 -3.3125 C 4.5 -4.195312 4.085938 -4.640625 3.265625 -4.640625 L 2.625 -4.640625 Z M 2.625 -1.46875 "/></g></g></g><g fill="#ffffff" fill-opacity="1"><g transform="translate(34.981714, 21.463816)"><g><path d="M 2.84375 -4.796875 C 3.5625 -4.796875 4.144531 -4.675781 4.59375 -4.4375 C 5.039062 -4.195312 5.265625 -3.804688 5.265625 -3.265625 L 5.265625 -1.4375 C 5.265625 -1.332031 5.285156 -1.25 5.328125 -1.1875 C 5.378906 -1.125 5.457031 -1.09375 5.5625 -1.09375 L 5.875 -1.09375 L 5.875 -0.078125 C 5.851562 -0.0546875 5.804688 -0.03125 5.734375 0 C 5.660156 0.0195312 5.554688 0.0390625 5.421875 0.0625 C 5.285156 0.09375 5.128906 0.109375 4.953125 0.109375 C 4.609375 0.109375 4.320312 0.0546875 4.09375 -0.046875 C 3.875 -0.148438 3.722656 -0.296875 3.640625 -0.484375 C 3.421875 -0.304688 3.171875 -0.160156 2.890625 -0.046875 C 2.609375 0.0546875 2.285156 0.109375 1.921875 0.109375 C 0.816406 0.109375 0.265625 -0.328125 0.265625 -1.203125 C 0.265625 -1.660156 0.382812 -2.007812 0.625 -2.25 C 0.875 -2.488281 1.226562 -2.648438 1.6875 -2.734375 C 2.15625 -2.828125 2.757812 -2.875 3.5 -2.875 L 3.5 -3.109375 C 3.5 -3.285156 3.4375 -3.421875 3.3125 -3.515625 C 3.1875 -3.617188 3.023438 -3.671875 2.828125 -3.671875 C 2.640625 -3.671875 2.476562 -3.632812 2.34375 -3.5625 C 2.207031 -3.5 2.140625 -3.394531 2.140625 -3.25 L 2.140625 -3.21875 L 0.40625 -3.21875 C 0.40625 -3.25 0.40625 -3.289062 0.40625 -3.34375 C 0.40625 -3.789062 0.613281 -4.144531 1.03125 -4.40625 C 1.457031 -4.664062 2.0625 -4.796875 2.84375 -4.796875 Z M 3.5 -2.046875 C 3 -2.046875 2.628906 -1.988281 2.390625 -1.875 C 2.148438 -1.769531 2.03125 -1.625 2.03125 -1.4375 C 2.03125 -1.144531 2.234375 -1 2.640625 -1 C 2.867188 -1 3.066406 -1.054688 3.234375 -1.171875 C 3.410156 -1.296875 3.5 -1.453125 3.5 -1.640625 Z M 3.5 -2.046875 "/></g></g></g><g fill="#ffffff" fill-opacity="1"><g transform="translate(40.905771, 21.463816)"><g><path d="M 3.65625 -4.6875 L 3.65625 -3.484375 L 2.65625 -3.484375 L 2.65625 -1.703125 C 2.65625 -1.492188 2.691406 -1.335938 2.765625 -1.234375 C 2.835938 -1.140625 2.96875 -1.09375 3.15625 -1.09375 L 3.65625 -1.09375 L 3.65625 -0.046875 C 3.507812 -0.00390625 3.320312 0.03125 3.09375 0.0625 C 2.875 0.09375 2.679688 0.109375 2.515625 0.109375 C 1.992188 0.109375 1.59375 0.015625 1.3125 -0.171875 C 1.03125 -0.367188 0.890625 -0.691406 0.890625 -1.140625 L 0.890625 -3.484375 L 0.234375 -3.484375 L 0.234375 -4.6875 L 0.96875 -4.6875 L 1.34375 -6.109375 L 2.65625 -6.109375 L 2.65625 -4.6875 Z M 3.65625 -4.6875 "/></g></g></g><g fill="#ffffff" fill-opacity="1"><g transform="translate(44.849216, 21.463816)"><g><path d="M 2.84375 -4.796875 C 3.5625 -4.796875 4.144531 -4.675781 4.59375 -4.4375 C 5.039062 -4.195312 5.265625 -3.804688 5.265625 -3.265625 L 5.265625 -1.4375 C 5.265625 -1.332031 5.285156 -1.25 5.328125 -1.1875 C 5.378906 -1.125 5.457031 -1.09375 5.5625 -1.09375 L 5.875 -1.09375 L 5.875 -0.078125 C 5.851562 -0.0546875 5.804688 -0.03125 5.734375 0 C 5.660156 0.0195312 5.554688 0.0390625 5.421875 0.0625 C 5.285156 0.09375 5.128906 0.109375 4.953125 0.109375 C 4.609375 0.109375 4.320312 0.0546875 4.09375 -0.046875 C 3.875 -0.148438 3.722656 -0.296875 3.640625 -0.484375 C 3.421875 -0.304688 3.171875 -0.160156 2.890625 -0.046875 C 2.609375 0.0546875 2.285156 0.109375 1.921875 0.109375 C 0.816406 0.109375 0.265625 -0.328125 0.265625 -1.203125 C 0.265625 -1.660156 0.382812 -2.007812 0.625 -2.25 C 0.875 -2.488281 1.226562 -2.648438 1.6875 -2.734375 C 2.15625 -2.828125 2.757812 -2.875 3.5 -2.875 L 3.5 -3.109375 C 3.5 -3.285156 3.4375 -3.421875 3.3125 -3.515625 C 3.1875 -3.617188 3.023438 -3.671875 2.828125 -3.671875 C 2.640625 -3.671875 2.476562 -3.632812 2.34375 -3.5625 C 2.207031 -3.5 2.140625 -3.394531 2.140625 -3.25 L 2.140625 -3.21875 L 0.40625 -3.21875 C 0.40625 -3.25 0.40625 -3.289062 0.40625 -3.34375 C 0.40625 -3.789062 0.613281 -4.144531 1.03125 -4.40625 C 1.457031 -4.664062 2.0625 -4.796875 2.84375 -4.796875 Z M 3.5 -2.046875 C 3 -2.046875 2.628906 -1.988281 2.390625 -1.875 C 2.148438 -1.769531 2.03125 -1.625 2.03125 -1.4375 C 2.03125 -1.144531 2.234375 -1 2.640625 -1 C 2.867188 -1 3.066406 -1.054688 3.234375 -1.171875 C 3.410156 -1.296875 3.5 -1.453125 3.5 -1.640625 Z M 3.5 -2.046875 "/></g></g></g><g fill="#ffffff" fill-opacity="1"><g transform="translate(50.773273, 21.463816)"><g/></g></g><g fill="#ffffff" fill-opacity="1"><g transform="translate(53.730863, 21.463816)"><g><path d="M 5.90625 0 L 5.90625 -2.203125 C 5.90625 -2.472656 5.914062 -2.75 5.9375 -3.03125 C 5.957031 -3.320312 5.976562 -3.566406 6 -3.765625 C 6.019531 -3.960938 6.035156 -4.085938 6.046875 -4.140625 L 6.015625 -4.140625 L 4.875 0 L 3.34375 0 L 2.203125 -4.125 L 2.171875 -4.125 C 2.179688 -4.070312 2.195312 -3.945312 2.21875 -3.75 C 2.25 -3.5625 2.273438 -3.320312 2.296875 -3.03125 C 2.316406 -2.75 2.328125 -2.472656 2.328125 -2.203125 L 2.328125 0 L 0.53125 0 L 0.53125 -6.109375 L 3.296875 -6.109375 L 4.21875 -2.578125 L 4.265625 -2.578125 L 5.171875 -6.109375 L 7.84375 -6.109375 L 7.84375 0 Z M 5.90625 0 "/></g></g></g><g fill="#ffffff" fill-opacity="1"><g transform="translate(62.115131, 21.463816)"><g><path d="M 2.953125 -4.796875 C 3.816406 -4.796875 4.472656 -4.59375 4.921875 -4.1875 C 5.367188 -3.78125 5.59375 -3.164062 5.59375 -2.34375 L 5.59375 -2.046875 L 2.078125 -2.046875 C 2.078125 -1.703125 2.148438 -1.441406 2.296875 -1.265625 C 2.453125 -1.097656 2.695312 -1.015625 3.03125 -1.015625 C 3.320312 -1.015625 3.535156 -1.078125 3.671875 -1.203125 C 3.816406 -1.328125 3.890625 -1.492188 3.890625 -1.703125 L 5.59375 -1.703125 C 5.59375 -1.140625 5.375 -0.695312 4.9375 -0.375 C 4.507812 -0.0507812 3.882812 0.109375 3.0625 0.109375 C 2.1875 0.109375 1.507812 -0.09375 1.03125 -0.5 C 0.550781 -0.90625 0.3125 -1.519531 0.3125 -2.34375 C 0.3125 -3.144531 0.546875 -3.753906 1.015625 -4.171875 C 1.484375 -4.585938 2.128906 -4.796875 2.953125 -4.796875 Z M 3.03125 -3.671875 C 2.46875 -3.671875 2.15625 -3.40625 2.09375 -2.875 L 3.8125 -2.875 C 3.8125 -3.113281 3.742188 -3.304688 3.609375 -3.453125 C 3.472656 -3.597656 3.28125 -3.671875 3.03125 -3.671875 Z M 3.03125 -3.671875 "/></g></g></g><g fill="#ffffff" fill-opacity="1"><g transform="translate(68.039188, 21.463816)"><g><path d="M 2.953125 -4.796875 C 3.816406 -4.796875 4.472656 -4.59375 4.921875 -4.1875 C 5.367188 -3.78125 5.59375 -3.164062 5.59375 -2.34375 L 5.59375 -2.046875 L 2.078125 -2.046875 C 2.078125 -1.703125 2.148438 -1.441406 2.296875 -1.265625 C 2.453125 -1.097656 2.695312 -1.015625 3.03125 -1.015625 C 3.320312 -1.015625 3.535156 -1.078125 3.671875 -1.203125 C 3.816406 -1.328125 3.890625 -1.492188 3.890625 -1.703125 L 5.59375 -1.703125 C 5.59375 -1.140625 5.375 -0.695312 4.9375 -0.375 C 4.507812 -0.0507812 3.882812 0.109375 3.0625 0.109375 C 2.1875 0.109375 1.507812 -0.09375 1.03125 -0.5 C 0.550781 -0.90625 0.3125 -1.519531 0.3125 -2.34375 C 0.3125 -3.144531 0.546875 -3.753906 1.015625 -4.171875 C 1.484375 -4.585938 2.128906 -4.796875 2.953125 -4.796875 Z M 3.03125 -3.671875 C 2.46875 -3.671875 2.15625 -3.40625 2.09375 -2.875 L 3.8125 -2.875 C 3.8125 -3.113281 3.742188 -3.304688 3.609375 -3.453125 C 3.472656 -3.597656 3.28125 -3.671875 3.03125 -3.671875 Z M 3.03125 -3.671875 "/></g></g></g><g fill="#ffffff" fill-opacity="1"><g transform="translate(73.963244, 21.463816)"><g><path d="M 3.375 -4.796875 C 3.507812 -4.796875 3.628906 -4.78125 3.734375 -4.75 C 3.847656 -4.71875 3.90625 -4.695312 3.90625 -4.6875 L 3.90625 -3.21875 L 3.34375 -3.21875 C 2.96875 -3.21875 2.695312 -3.117188 2.53125 -2.921875 C 2.375 -2.734375 2.296875 -2.453125 2.296875 -2.078125 L 2.296875 0 L 0.53125 0 L 0.53125 -4.6875 L 1.984375 -4.6875 L 2.09375 -3.96875 C 2.195312 -4.25 2.363281 -4.457031 2.59375 -4.59375 C 2.832031 -4.726562 3.09375 -4.796875 3.375 -4.796875 Z M 3.375 -4.796875 "/></g></g></g><g fill="#ffffff" fill-opacity="1"><g transform="translate(77.90669, 21.463816)"><g><path d="M 3.796875 -4.6875 L 5.859375 -4.6875 L 4.125 -2.796875 L 5.90625 0 L 3.890625 0 L 2.90625 -1.609375 L 2.296875 -1.015625 L 2.296875 0 L 0.53125 0 L 0.53125 -6.4375 L 2.296875 -6.4375 L 2.296875 -2.890625 Z M 3.796875 -4.6875 "/></g></g></g><g fill="#ffffff" fill-opacity="1"><g transform="translate(83.830746, 21.463816)"><g><path d="M 2.84375 -4.796875 C 3.5625 -4.796875 4.144531 -4.675781 4.59375 -4.4375 C 5.039062 -4.195312 5.265625 -3.804688 5.265625 -3.265625 L 5.265625 -1.4375 C 5.265625 -1.332031 5.285156 -1.25 5.328125 -1.1875 C 5.378906 -1.125 5.457031 -1.09375 5.5625 -1.09375 L 5.875 -1.09375 L 5.875 -0.078125 C 5.851562 -0.0546875 5.804688 -0.03125 5.734375 0 C 5.660156 0.0195312 5.554688 0.0390625 5.421875 0.0625 C 5.285156 0.09375 5.128906 0.109375 4.953125 0.109375 C 4.609375 0.109375 4.320312 0.0546875 4.09375 -0.046875 C 3.875 -0.148438 3.722656 -0.296875 3.640625 -0.484375 C 3.421875 -0.304688 3.171875 -0.160156 2.890625 -0.046875 C 2.609375 0.0546875 2.285156 0.109375 1.921875 0.109375 C 0.816406 0.109375 0.265625 -0.328125 0.265625 -1.203125 C 0.265625 -1.660156 0.382812 -2.007812 0.625 -2.25 C 0.875 -2.488281 1.226562 -2.648438 1.6875 -2.734375 C 2.15625 -2.828125 2.757812 -2.875 3.5 -2.875 L 3.5 -3.109375 C 3.5 -3.285156 3.4375 -3.421875 3.3125 -3.515625 C 3.1875 -3.617188 3.023438 -3.671875 2.828125 -3.671875 C 2.640625 -3.671875 2.476562 -3.632812 2.34375 -3.5625 C 2.207031 -3.5 2.140625 -3.394531 2.140625 -3.25 L 2.140625 -3.21875 L 0.40625 -3.21875 C 0.40625 -3.25 0.40625 -3.289062 0.40625 -3.34375 C 0.40625 -3.789062 0.613281 -4.144531 1.03125 -4.40625 C 1.457031 -4.664062 2.0625 -4.796875 2.84375 -4.796875 Z M 3.5 -2.046875 C 3 -2.046875 2.628906 -1.988281 2.390625 -1.875 C 2.148438 -1.769531 2.03125 -1.625 2.03125 -1.4375 C 2.03125 -1.144531 2.234375 -1 2.640625 -1 C 2.867188 -1 3.066406 -1.054688 3.234375 -1.171875 C 3.410156 -1.296875 3.5 -1.453125 3.5 -1.640625 Z M 3.5 -2.046875 "/></g></g></g><g fill="#ffffff" fill-opacity="1"><g transform="translate(89.754803, 21.463816)"><g><path d="M 3.65625 -4.6875 L 3.65625 -3.484375 L 2.65625 -3.484375 L 2.65625 -1.703125 C 2.65625 -1.492188 2.691406 -1.335938 2.765625 -1.234375 C 2.835938 -1.140625 2.96875 -1.09375 3.15625 -1.09375 L 3.65625 -1.09375 L 3.65625 -0.046875 C 3.507812 -0.00390625 3.320312 0.03125 3.09375 0.0625 C 2.875 0.09375 2.679688 0.109375 2.515625 0.109375 C 1.992188 0.109375 1.59375 0.015625 1.3125 -0.171875 C 1.03125 -0.367188 0.890625 -0.691406 0.890625 -1.140625 L 0.890625 -3.484375 L 0.234375 -3.484375 L 0.234375 -4.6875 L 0.96875 -4.6875 L 1.34375 -6.109375 L 2.65625 -6.109375 L 2.65625 -4.6875 Z M 3.65625 -4.6875 "/></g></g></g></svg>