<svg xmlns="http://www.w3.org/2000/svg" xmlns:xlink="http://www.w3.org/1999/xlink" width="135" zoomAndPan="magnify" viewBox="0 0 101.25 37.5" height="50" preserveAspectRatio="xMidYMid meet" version="1.0"><defs><g/><clipPath id="cd2e2c09ff"><path d="M 0.296875 9.042969 L 14.890625 9.042969 L 14.890625 27.722656 L 0.296875 27.722656 Z M 0.296875 9.042969 " clip-rule="nonzero"/></clipPath><clipPath id="a267492e3e"><path d="M 1 9.042969 L 15.472656 9.042969 L 15.472656 27.722656 L 1 27.722656 Z M 1 9.042969 " clip-rule="nonzero"/></clipPath></defs><g clip-path="url(#cd2e2c09ff)"><path fill="#fdd504" d="M 1.046875 27.132812 C 1.304688 27.179688 2.191406 27.074219 3.003906 26.882812 C 3.8125 26.691406 5.644531 26.289062 7.085938 25.519531 C 8.53125 24.753906 8.941406 24.082031 9.273438 23.695312 C 9.601562 23.308594 9.691406 22.972656 9.761719 22.753906 C 9.828125 22.539062 9.84375 22.199219 9.839844 21.949219 C 9.835938 21.703125 9.746094 21.398438 9.722656 20.886719 C 9.640625 19.464844 9.839844 18.898438 9.9375 18.488281 C 10.039062 18.082031 10.167969 17.089844 10.167969 16.964844 C 10.167969 16.839844 10.007812 16.136719 9.988281 15.714844 C 9.96875 15.292969 9.929688 14.949219 9.800781 14.574219 C 9.671875 14.199219 9.613281 13.746094 9.828125 12.945312 C 10.046875 12.144531 10.117188 11.65625 10.160156 11.042969 C 10.207031 10.429688 10.660156 9.765625 10.832031 9.605469 C 11.007812 9.441406 11.234375 9.160156 11.570312 9.117188 C 12.167969 9.042969 12.929688 9.320312 13.285156 9.492188 C 13.640625 9.667969 13.75 9.839844 13.800781 9.914062 C 13.847656 9.992188 14.082031 10.183594 14.195312 10.273438 C 14.308594 10.367188 14.816406 10.660156 14.851562 10.679688 C 14.886719 10.695312 14.882812 10.785156 14.867188 10.890625 C 14.851562 10.996094 14.796875 11.023438 14.796875 11.023438 C 14.796875 11.023438 14.804688 11.085938 14.773438 11.105469 C 14.757812 11.113281 14.714844 11.117188 14.675781 11.113281 C 14.667969 11.175781 14.652344 11.230469 14.636719 11.273438 C 14.636719 11.273438 14.632812 11.277344 14.628906 11.273438 C 14.628906 11.273438 14.625 11.269531 14.628906 11.269531 C 14.644531 11.230469 14.65625 11.171875 14.664062 11.113281 C 14.632812 11.113281 14.605469 11.109375 14.605469 11.109375 C 14.605469 11.109375 14.613281 11.15625 14.535156 11.191406 C 14.53125 11.242188 14.519531 11.285156 14.519531 11.285156 C 14.519531 11.285156 14.519531 11.289062 14.515625 11.289062 C 14.511719 11.285156 14.507812 11.285156 14.511719 11.28125 C 14.511719 11.28125 14.519531 11.242188 14.523438 11.195312 C 14.5 11.203125 14.46875 11.214844 14.429688 11.21875 C 14.347656 11.332031 14.28125 11.410156 14.28125 11.410156 C 14.277344 11.414062 14.277344 11.414062 14.273438 11.414062 C 14.269531 11.410156 14.269531 11.40625 14.269531 11.40625 C 14.273438 11.40625 14.335938 11.328125 14.414062 11.222656 C 14.394531 11.222656 14.371094 11.226562 14.34375 11.226562 C 14.332031 11.242188 14.316406 11.253906 14.296875 11.269531 C 14.296875 11.269531 14.292969 11.269531 14.289062 11.265625 C 14.289062 11.265625 14.289062 11.261719 14.292969 11.257812 C 14.304688 11.25 14.316406 11.238281 14.328125 11.230469 C 14.050781 11.246094 13.449219 11.246094 13.425781 11.253906 C 13.339844 11.285156 12.617188 11.421875 12.503906 11.386719 C 12.390625 11.355469 12.238281 11.378906 12.222656 11.417969 C 12.207031 11.460938 12.105469 11.527344 12.105469 11.519531 C 12.074219 11.746094 12.128906 12.125 12.183594 12.25 C 12.238281 12.375 12.859375 12.777344 13.207031 13.367188 C 13.550781 13.957031 13.207031 14.597656 13.207031 14.597656 C 13.207031 14.597656 13.261719 14.660156 13.277344 15.058594 C 13.289062 15.457031 13.417969 15.96875 13.625 16.40625 C 13.835938 16.839844 14.140625 17.285156 14.25 17.410156 C 14.359375 17.535156 14.382812 17.742188 14.339844 17.90625 C 14.292969 18.066406 14.265625 18.222656 14.265625 18.410156 C 14.265625 18.59375 14.070312 18.925781 14.046875 19.066406 C 14.023438 19.203125 13.972656 19.277344 13.976562 19.269531 C 13.988281 19.339844 13.921875 19.417969 13.921875 19.417969 C 13.921875 19.417969 13.910156 19.472656 13.910156 19.558594 C 13.910156 19.644531 13.792969 19.78125 13.792969 19.78125 C 13.773438 19.910156 13.679688 20.050781 13.679688 20.046875 C 13.671875 20 13.660156 19.9375 13.660156 19.9375 C 13.660156 19.9375 13.621094 19.996094 13.621094 19.992188 C 13.585938 19.828125 13.621094 19.699219 13.621094 19.699219 L 13.585938 19.648438 C 13.585938 19.648438 13.558594 19.699219 13.550781 19.6875 C 13.53125 19.515625 13.558594 19.433594 13.558594 19.433594 C 13.558594 19.433594 13.53125 19.386719 13.53125 19.375 C 13.488281 19.371094 13.484375 19.074219 13.476562 18.894531 C 13.472656 18.710938 13.523438 18.640625 13.523438 18.632812 C 13.511719 18.578125 13.617188 18.441406 13.675781 18.3125 C 13.734375 18.183594 13.679688 18.128906 13.710938 18.050781 C 13.738281 17.96875 13.773438 17.832031 13.753906 17.757812 C 13.734375 17.679688 13.4375 17.445312 13.433594 17.449219 C 13.46875 18.339844 13.160156 19.375 13.160156 19.375 C 13.203125 19.578125 13.160156 19.71875 13.160156 19.710938 C 13.207031 19.828125 13.171875 19.976562 13.171875 19.976562 L 13.132812 19.914062 C 13.132812 19.941406 13.121094 20.042969 13.121094 20.039062 C 13.058594 19.972656 13.019531 19.847656 13.019531 19.847656 C 12.96875 20.050781 12.765625 20.261719 12.816406 20.5 C 12.863281 20.734375 12.746094 21.484375 12.746094 21.492188 C 13.140625 22.367188 13.09375 23.316406 12.804688 23.941406 C 12.519531 24.5625 11.34375 25.03125 11.34375 25.03125 C 11.34375 25.03125 11.242188 25.222656 11.234375 25.339844 C 11.222656 25.453125 11.242188 25.757812 11.445312 26.167969 C 11.648438 26.582031 11.8125 26.617188 12.015625 26.652344 C 12.21875 26.6875 12.273438 26.703125 12.320312 26.730469 C 12.371094 26.753906 12.378906 26.796875 12.378906 26.796875 C 12.378906 26.796875 12.441406 26.824219 12.597656 26.828125 C 12.757812 26.835938 12.816406 26.90625 12.839844 26.941406 C 12.914062 26.90625 13.148438 27.070312 13.148438 27.070312 L 13.097656 27.078125 C 13.097656 27.078125 13.140625 27.117188 13.148438 27.113281 C 13 27.144531 12.824219 27.09375 12.824219 27.09375 C 12.824219 27.09375 12.871094 27.136719 12.871094 27.132812 C 12.796875 27.152344 12.558594 27.132812 12.554688 27.132812 C 12.515625 27.175781 12.222656 27.152344 12.222656 27.152344 C 12.132812 27.195312 11.933594 27.15625 11.828125 27.136719 C 11.722656 27.117188 11.523438 27.039062 11.40625 26.972656 C 11.257812 26.882812 11 26.3125 11 26.3125 C 11 26.3125 11.011719 26.503906 11.144531 26.742188 C 11.273438 26.976562 11.441406 27.035156 11.65625 27.117188 C 11.875 27.203125 11.921875 27.265625 11.949219 27.285156 C 11.972656 27.304688 12.078125 27.34375 12.171875 27.375 C 12.265625 27.40625 12.394531 27.558594 12.394531 27.554688 C 12.632812 27.617188 12.6875 27.71875 12.6875 27.710938 C 12.5625 27.722656 12.347656 27.679688 12.347656 27.679688 L 12.230469 27.679688 L 12.265625 27.707031 C 12.125 27.714844 11.929688 27.640625 11.929688 27.640625 C 11.871094 27.6875 11.554688 27.640625 11.328125 27.574219 C 11.101562 27.503906 11.03125 27.4375 10.902344 27.332031 C 10.773438 27.226562 10.617188 26.882812 10.566406 26.632812 C 10.515625 26.382812 10.320312 25.414062 10.25 25.1875 C 10.179688 24.957031 10.496094 24.773438 10.765625 24.589844 C 11.03125 24.410156 11.335938 23.890625 11.335938 23.777344 C 11.335938 23.660156 10.933594 23.480469 10.933594 23.480469 C 10.933594 23.480469 10.683594 23.746094 9.933594 24.554688 C 9.183594 25.359375 7.917969 26.125 6.730469 26.59375 C 5.542969 27.0625 4.429688 27.261719 3.160156 27.457031 C 2.078125 27.625 1.171875 27.644531 0.828125 27.476562 C 0.300781 27.21875 0.789062 27.082031 1.046875 27.132812 " fill-opacity="1" fill-rule="nonzero"/></g><g clip-path="url(#a267492e3e)"><path fill="#0f9083" d="M 1.628906 27.132812 C 1.886719 27.179688 2.777344 27.074219 3.585938 26.882812 C 4.398438 26.691406 6.226562 26.289062 7.671875 25.519531 C 9.113281 24.753906 9.523438 24.082031 9.855469 23.695312 C 10.1875 23.308594 10.273438 22.972656 10.34375 22.753906 C 10.414062 22.539062 10.429688 22.199219 10.421875 21.949219 C 10.417969 21.703125 10.328125 21.398438 10.304688 20.886719 C 10.226562 19.464844 10.421875 18.898438 10.523438 18.488281 C 10.621094 18.082031 10.75 17.089844 10.75 16.964844 C 10.75 16.839844 10.59375 16.136719 10.570312 15.714844 C 10.550781 15.292969 10.511719 14.949219 10.382812 14.574219 C 10.253906 14.199219 10.195312 13.746094 10.414062 12.945312 C 10.632812 12.144531 10.699219 11.65625 10.746094 11.042969 C 10.789062 10.429688 11.246094 9.765625 11.417969 9.605469 C 11.589844 9.441406 11.816406 9.160156 12.152344 9.117188 C 12.753906 9.042969 13.511719 9.320312 13.871094 9.492188 C 14.226562 9.667969 14.332031 9.839844 14.382812 9.914062 C 14.433594 9.992188 14.664062 10.183594 14.777344 10.273438 C 14.890625 10.367188 15.402344 10.660156 15.4375 10.679688 C 15.472656 10.695312 15.464844 10.785156 15.449219 10.890625 C 15.4375 10.996094 15.382812 11.023438 15.382812 11.023438 C 15.382812 11.023438 15.386719 11.085938 15.355469 11.105469 C 15.34375 11.113281 15.296875 11.117188 15.257812 11.113281 C 15.25 11.175781 15.238281 11.230469 15.222656 11.273438 C 15.21875 11.273438 15.21875 11.277344 15.214844 11.273438 C 15.210938 11.273438 15.210938 11.269531 15.210938 11.269531 C 15.226562 11.230469 15.238281 11.171875 15.25 11.113281 C 15.214844 11.113281 15.1875 11.109375 15.1875 11.109375 C 15.1875 11.109375 15.199219 11.15625 15.121094 11.191406 C 15.117188 11.242188 15.105469 11.285156 15.105469 11.285156 C 15.105469 11.285156 15.101562 11.289062 15.097656 11.289062 C 15.09375 11.285156 15.09375 11.285156 15.09375 11.28125 C 15.09375 11.28125 15.105469 11.242188 15.109375 11.195312 C 15.085938 11.203125 15.054688 11.214844 15.011719 11.21875 C 14.933594 11.332031 14.863281 11.410156 14.863281 11.410156 C 14.863281 11.414062 14.859375 11.414062 14.859375 11.414062 C 14.859375 11.414062 14.855469 11.414062 14.855469 11.414062 C 14.851562 11.410156 14.851562 11.40625 14.855469 11.40625 C 14.855469 11.40625 14.921875 11.328125 14.996094 11.222656 C 14.976562 11.222656 14.957031 11.226562 14.929688 11.226562 C 14.914062 11.242188 14.898438 11.253906 14.882812 11.269531 C 14.878906 11.269531 14.875 11.269531 14.875 11.265625 C 14.871094 11.265625 14.871094 11.261719 14.875 11.257812 C 14.890625 11.25 14.902344 11.238281 14.914062 11.230469 C 14.632812 11.246094 14.035156 11.246094 14.007812 11.253906 C 13.921875 11.285156 13.203125 11.421875 13.089844 11.386719 C 12.972656 11.355469 12.824219 11.378906 12.808594 11.417969 C 12.789062 11.460938 12.6875 11.527344 12.6875 11.519531 C 12.65625 11.746094 12.710938 12.125 12.765625 12.25 C 12.820312 12.375 13.445312 12.777344 13.789062 13.367188 C 14.136719 13.957031 13.789062 14.597656 13.789062 14.597656 C 13.789062 14.597656 13.84375 14.660156 13.859375 15.058594 C 13.875 15.457031 14.003906 15.96875 14.210938 16.40625 C 14.417969 16.839844 14.722656 17.285156 14.832031 17.410156 C 14.941406 17.535156 14.964844 17.742188 14.921875 17.90625 C 14.878906 18.066406 14.847656 18.222656 14.847656 18.410156 C 14.847656 18.59375 14.65625 18.925781 14.628906 19.066406 C 14.605469 19.203125 14.554688 19.277344 14.5625 19.269531 C 14.570312 19.339844 14.507812 19.417969 14.507812 19.417969 C 14.507812 19.417969 14.492188 19.472656 14.492188 19.558594 C 14.492188 19.644531 14.378906 19.78125 14.378906 19.78125 C 14.359375 19.910156 14.265625 20.050781 14.265625 20.046875 C 14.253906 20 14.246094 19.9375 14.246094 19.9375 C 14.246094 19.9375 14.207031 19.996094 14.207031 19.992188 C 14.171875 19.828125 14.207031 19.699219 14.207031 19.699219 L 14.171875 19.648438 C 14.171875 19.648438 14.140625 19.699219 14.136719 19.6875 C 14.117188 19.515625 14.140625 19.433594 14.140625 19.433594 C 14.140625 19.433594 14.117188 19.386719 14.117188 19.375 C 14.070312 19.371094 14.066406 19.074219 14.0625 18.894531 C 14.058594 18.710938 14.105469 18.640625 14.105469 18.632812 C 14.097656 18.578125 14.199219 18.441406 14.261719 18.3125 C 14.320312 18.183594 14.265625 18.128906 14.292969 18.050781 C 14.324219 17.96875 14.359375 17.832031 14.339844 17.757812 C 14.320312 17.679688 14.023438 17.445312 14.015625 17.449219 C 14.050781 18.339844 13.746094 19.375 13.746094 19.375 C 13.785156 19.578125 13.746094 19.71875 13.746094 19.710938 C 13.789062 19.828125 13.753906 19.976562 13.753906 19.976562 L 13.714844 19.914062 C 13.714844 19.941406 13.707031 20.042969 13.707031 20.039062 C 13.640625 19.972656 13.601562 19.847656 13.601562 19.847656 C 13.554688 20.050781 13.351562 20.261719 13.398438 20.5 C 13.449219 20.734375 13.332031 21.484375 13.332031 21.492188 C 13.726562 22.367188 13.675781 23.316406 13.390625 23.941406 C 13.101562 24.5625 11.925781 25.03125 11.925781 25.03125 C 11.925781 25.03125 11.828125 25.222656 11.816406 25.339844 C 11.808594 25.453125 11.828125 25.757812 12.03125 26.167969 C 12.234375 26.582031 12.394531 26.617188 12.597656 26.652344 C 12.800781 26.6875 12.855469 26.703125 12.90625 26.730469 C 12.953125 26.753906 12.964844 26.796875 12.964844 26.796875 C 12.964844 26.796875 13.023438 26.824219 13.183594 26.828125 C 13.339844 26.835938 13.402344 26.90625 13.421875 26.941406 C 13.496094 26.90625 13.730469 27.070312 13.730469 27.070312 L 13.679688 27.078125 C 13.679688 27.078125 13.726562 27.117188 13.730469 27.113281 C 13.582031 27.144531 13.410156 27.09375 13.410156 27.09375 C 13.410156 27.09375 13.453125 27.136719 13.453125 27.132812 C 13.378906 27.152344 13.144531 27.132812 13.136719 27.132812 C 13.097656 27.175781 12.808594 27.152344 12.808594 27.152344 C 12.714844 27.195312 12.519531 27.15625 12.414062 27.136719 C 12.308594 27.117188 12.105469 27.039062 11.992188 26.972656 C 11.839844 26.882812 11.582031 26.3125 11.582031 26.3125 C 11.582031 26.3125 11.59375 26.503906 11.726562 26.742188 C 11.859375 26.976562 12.023438 27.035156 12.242188 27.117188 C 12.457031 27.203125 12.503906 27.265625 12.53125 27.285156 C 12.558594 27.304688 12.664062 27.34375 12.753906 27.375 C 12.847656 27.40625 12.980469 27.558594 12.980469 27.554688 C 13.214844 27.617188 13.269531 27.71875 13.269531 27.710938 C 13.144531 27.722656 12.933594 27.679688 12.933594 27.679688 L 12.816406 27.679688 L 12.847656 27.707031 C 12.710938 27.714844 12.515625 27.640625 12.515625 27.640625 C 12.457031 27.6875 12.140625 27.640625 11.910156 27.574219 C 11.683594 27.503906 11.613281 27.4375 11.488281 27.332031 C 11.359375 27.226562 11.199219 26.882812 11.148438 26.632812 C 11.101562 26.382812 10.902344 25.414062 10.835938 25.1875 C 10.765625 24.957031 11.082031 24.773438 11.347656 24.589844 C 11.613281 24.410156 11.921875 23.890625 11.921875 23.777344 C 11.921875 23.660156 11.515625 23.480469 11.515625 23.480469 C 11.515625 23.480469 11.269531 23.746094 10.519531 24.554688 C 9.765625 25.359375 8.5 26.125 7.3125 26.59375 C 6.128906 27.0625 5.011719 27.261719 3.746094 27.457031 C 2.664062 27.625 1.757812 27.644531 1.414062 27.476562 C 0.882812 27.21875 1.371094 27.082031 1.628906 27.132812 " fill-opacity="1" fill-rule="nonzero"/></g><g fill="#ffffff" fill-opacity="1"><g transform="translate(17.65936, 21.463816)"><g><path d="M 4.03125 -7.453125 C 6.644531 -7.453125 7.953125 -6.210938 7.953125 -3.734375 C 7.953125 -1.242188 6.644531 0 4.03125 0 L 0.796875 0 L 0.796875 -7.453125 Z M 3.203125 -1.796875 L 3.984375 -1.796875 C 4.992188 -1.796875 5.5 -2.332031 5.5 -3.40625 L 5.5 -4.0625 C 5.5 -5.132812 4.992188 -5.671875 3.984375 -5.671875 L 3.203125 -5.671875 Z M 3.203125 -1.796875 "/></g></g></g><g fill="#ffffff" fill-opacity="1"><g transform="translate(26.098786, 21.463816)"><g><path d="M 3.484375 -5.859375 C 4.359375 -5.859375 5.066406 -5.710938 5.609375 -5.421875 C 6.160156 -5.128906 6.4375 -4.648438 6.4375 -3.984375 L 6.4375 -1.75 C 6.4375 -1.632812 6.460938 -1.535156 6.515625 -1.453125 C 6.578125 -1.367188 6.664062 -1.328125 6.78125 -1.328125 L 7.171875 -1.328125 L 7.171875 -0.09375 C 7.148438 -0.0703125 7.09375 -0.046875 7 -0.015625 C 6.914062 0.015625 6.789062 0.046875 6.625 0.078125 C 6.457031 0.109375 6.265625 0.125 6.046875 0.125 C 5.628906 0.125 5.285156 0.0625 5.015625 -0.0625 C 4.742188 -0.1875 4.554688 -0.359375 4.453125 -0.578125 C 4.179688 -0.367188 3.875 -0.195312 3.53125 -0.0625 C 3.195312 0.0625 2.800781 0.125 2.34375 0.125 C 1 0.125 0.328125 -0.40625 0.328125 -1.46875 C 0.328125 -2.03125 0.472656 -2.457031 0.765625 -2.75 C 1.066406 -3.039062 1.5 -3.238281 2.0625 -3.34375 C 2.632812 -3.457031 3.375 -3.515625 4.28125 -3.515625 L 4.28125 -3.796875 C 4.28125 -4.015625 4.203125 -4.179688 4.046875 -4.296875 C 3.890625 -4.421875 3.691406 -4.484375 3.453125 -4.484375 C 3.222656 -4.484375 3.023438 -4.441406 2.859375 -4.359375 C 2.703125 -4.273438 2.625 -4.148438 2.625 -3.984375 L 2.625 -3.9375 L 0.5 -3.9375 C 0.488281 -3.96875 0.484375 -4.019531 0.484375 -4.09375 C 0.484375 -4.632812 0.738281 -5.0625 1.25 -5.375 C 1.769531 -5.695312 2.515625 -5.859375 3.484375 -5.859375 Z M 4.28125 -2.5 C 3.664062 -2.5 3.210938 -2.429688 2.921875 -2.296875 C 2.628906 -2.160156 2.484375 -1.976562 2.484375 -1.75 C 2.484375 -1.394531 2.726562 -1.21875 3.21875 -1.21875 C 3.5 -1.21875 3.742188 -1.289062 3.953125 -1.4375 C 4.171875 -1.59375 4.28125 -1.78125 4.28125 -2 Z M 4.28125 -2.5 "/></g></g></g><g fill="#ffffff" fill-opacity="1"><g transform="translate(33.334132, 21.463816)"><g><path d="M 4.46875 -5.71875 L 4.46875 -4.265625 L 3.25 -4.265625 L 3.25 -2.078125 C 3.25 -1.816406 3.289062 -1.625 3.375 -1.5 C 3.46875 -1.382812 3.628906 -1.328125 3.859375 -1.328125 L 4.46875 -1.328125 L 4.46875 -0.0625 C 4.289062 -0.0078125 4.066406 0.03125 3.796875 0.0625 C 3.523438 0.101562 3.285156 0.125 3.078125 0.125 C 2.441406 0.125 1.953125 0.0078125 1.609375 -0.21875 C 1.265625 -0.445312 1.09375 -0.84375 1.09375 -1.40625 L 1.09375 -4.265625 L 0.296875 -4.265625 L 0.296875 -5.71875 L 1.1875 -5.71875 L 1.640625 -7.453125 L 3.25 -7.453125 L 3.25 -5.71875 Z M 4.46875 -5.71875 "/></g></g></g><g fill="#ffffff" fill-opacity="1"><g transform="translate(38.150464, 21.463816)"><g><path d="M 3.484375 -5.859375 C 4.359375 -5.859375 5.066406 -5.710938 5.609375 -5.421875 C 6.160156 -5.128906 6.4375 -4.648438 6.4375 -3.984375 L 6.4375 -1.75 C 6.4375 -1.632812 6.460938 -1.535156 6.515625 -1.453125 C 6.578125 -1.367188 6.664062 -1.328125 6.78125 -1.328125 L 7.171875 -1.328125 L 7.171875 -0.09375 C 7.148438 -0.0703125 7.09375 -0.046875 7 -0.015625 C 6.914062 0.015625 6.789062 0.046875 6.625 0.078125 C 6.457031 0.109375 6.265625 0.125 6.046875 0.125 C 5.628906 0.125 5.285156 0.0625 5.015625 -0.0625 C 4.742188 -0.1875 4.554688 -0.359375 4.453125 -0.578125 C 4.179688 -0.367188 3.875 -0.195312 3.53125 -0.0625 C 3.195312 0.0625 2.800781 0.125 2.34375 0.125 C 1 0.125 0.328125 -0.40625 0.328125 -1.46875 C 0.328125 -2.03125 0.472656 -2.457031 0.765625 -2.75 C 1.066406 -3.039062 1.5 -3.238281 2.0625 -3.34375 C 2.632812 -3.457031 3.375 -3.515625 4.28125 -3.515625 L 4.28125 -3.796875 C 4.28125 -4.015625 4.203125 -4.179688 4.046875 -4.296875 C 3.890625 -4.421875 3.691406 -4.484375 3.453125 -4.484375 C 3.222656 -4.484375 3.023438 -4.441406 2.859375 -4.359375 C 2.703125 -4.273438 2.625 -4.148438 2.625 -3.984375 L 2.625 -3.9375 L 0.5 -3.9375 C 0.488281 -3.96875 0.484375 -4.019531 0.484375 -4.09375 C 0.484375 -4.632812 0.738281 -5.0625 1.25 -5.375 C 1.769531 -5.695312 2.515625 -5.859375 3.484375 -5.859375 Z M 4.28125 -2.5 C 3.664062 -2.5 3.210938 -2.429688 2.921875 -2.296875 C 2.628906 -2.160156 2.484375 -1.976562 2.484375 -1.75 C 2.484375 -1.394531 2.726562 -1.21875 3.21875 -1.21875 C 3.5 -1.21875 3.742188 -1.289062 3.953125 -1.4375 C 4.171875 -1.59375 4.28125 -1.78125 4.28125 -2 Z M 4.28125 -2.5 "/></g></g></g><g fill="#ffffff" fill-opacity="1"><g transform="translate(45.38581, 21.463816)"><g/></g></g><g fill="#ffffff" fill-opacity="1"><g transform="translate(48.998063, 21.463816)"><g><path d="M 7.21875 0 L 7.21875 -2.6875 C 7.21875 -3.019531 7.226562 -3.359375 7.25 -3.703125 C 7.269531 -4.054688 7.296875 -4.351562 7.328125 -4.59375 C 7.359375 -4.832031 7.378906 -4.984375 7.390625 -5.046875 L 7.34375 -5.046875 L 5.96875 0 L 4.09375 0 L 2.703125 -5.046875 L 2.65625 -5.046875 C 2.664062 -4.972656 2.6875 -4.816406 2.71875 -4.578125 C 2.75 -4.347656 2.78125 -4.054688 2.8125 -3.703125 C 2.84375 -3.359375 2.859375 -3.019531 2.859375 -2.6875 L 2.859375 0 L 0.65625 0 L 0.65625 -7.453125 L 4.03125 -7.453125 L 5.15625 -3.15625 L 5.203125 -3.15625 L 6.328125 -7.453125 L 9.578125 -7.453125 L 9.578125 0 Z M 7.21875 0 "/></g></g></g><g fill="#ffffff" fill-opacity="1"><g transform="translate(59.238194, 21.463816)"><g><path d="M 3.609375 -5.859375 C 4.660156 -5.859375 5.460938 -5.609375 6.015625 -5.109375 C 6.566406 -4.617188 6.84375 -3.867188 6.84375 -2.859375 L 6.84375 -2.5 L 2.546875 -2.5 C 2.546875 -2.082031 2.632812 -1.769531 2.8125 -1.5625 C 3 -1.351562 3.296875 -1.25 3.703125 -1.25 C 4.054688 -1.25 4.316406 -1.320312 4.484375 -1.46875 C 4.660156 -1.625 4.75 -1.828125 4.75 -2.078125 L 6.84375 -2.078125 C 6.84375 -1.390625 6.578125 -0.847656 6.046875 -0.453125 C 5.523438 -0.0664062 4.753906 0.125 3.734375 0.125 C 2.671875 0.125 1.847656 -0.117188 1.265625 -0.609375 C 0.679688 -1.109375 0.390625 -1.859375 0.390625 -2.859375 C 0.390625 -3.847656 0.675781 -4.59375 1.25 -5.09375 C 1.820312 -5.601562 2.609375 -5.859375 3.609375 -5.859375 Z M 3.703125 -4.484375 C 3.015625 -4.484375 2.632812 -4.160156 2.5625 -3.515625 L 4.65625 -3.515625 C 4.65625 -3.804688 4.570312 -4.039062 4.40625 -4.21875 C 4.238281 -4.394531 4.003906 -4.484375 3.703125 -4.484375 Z M 3.703125 -4.484375 "/></g></g></g><g fill="#ffffff" fill-opacity="1"><g transform="translate(66.47354, 21.463816)"><g><path d="M 3.609375 -5.859375 C 4.660156 -5.859375 5.460938 -5.609375 6.015625 -5.109375 C 6.566406 -4.617188 6.84375 -3.867188 6.84375 -2.859375 L 6.84375 -2.5 L 2.546875 -2.5 C 2.546875 -2.082031 2.632812 -1.769531 2.8125 -1.5625 C 3 -1.351562 3.296875 -1.25 3.703125 -1.25 C 4.054688 -1.25 4.316406 -1.320312 4.484375 -1.46875 C 4.660156 -1.625 4.75 -1.828125 4.75 -2.078125 L 6.84375 -2.078125 C 6.84375 -1.390625 6.578125 -0.847656 6.046875 -0.453125 C 5.523438 -0.0664062 4.753906 0.125 3.734375 0.125 C 2.671875 0.125 1.847656 -0.117188 1.265625 -0.609375 C 0.679688 -1.109375 0.390625 -1.859375 0.390625 -2.859375 C 0.390625 -3.847656 0.675781 -4.59375 1.25 -5.09375 C 1.820312 -5.601562 2.609375 -5.859375 3.609375 -5.859375 Z M 3.703125 -4.484375 C 3.015625 -4.484375 2.632812 -4.160156 2.5625 -3.515625 L 4.65625 -3.515625 C 4.65625 -3.804688 4.570312 -4.039062 4.40625 -4.21875 C 4.238281 -4.394531 4.003906 -4.484375 3.703125 -4.484375 Z M 3.703125 -4.484375 "/></g></g></g><g fill="#ffffff" fill-opacity="1"><g transform="translate(73.708886, 21.463816)"><g><path d="M 4.125 -5.859375 C 4.289062 -5.859375 4.4375 -5.835938 4.5625 -5.796875 C 4.695312 -5.765625 4.765625 -5.742188 4.765625 -5.734375 L 4.765625 -3.921875 L 4.078125 -3.921875 C 3.628906 -3.921875 3.304688 -3.804688 3.109375 -3.578125 C 2.910156 -3.347656 2.8125 -3.003906 2.8125 -2.546875 L 2.8125 0 L 0.65625 0 L 0.65625 -5.71875 L 2.421875 -5.71875 L 2.5625 -4.859375 C 2.6875 -5.191406 2.890625 -5.441406 3.171875 -5.609375 C 3.453125 -5.773438 3.769531 -5.859375 4.125 -5.859375 Z M 4.125 -5.859375 "/></g></g></g><g fill="#ffffff" fill-opacity="1"><g transform="translate(78.525219, 21.463816)"><g><path d="M 4.640625 -5.71875 L 7.15625 -5.71875 L 5.046875 -3.421875 L 7.21875 0 L 4.765625 0 L 3.5625 -1.96875 L 2.8125 -1.234375 L 2.8125 0 L 0.65625 0 L 0.65625 -7.875 L 2.8125 -7.875 L 2.8125 -3.53125 Z M 4.640625 -5.71875 "/></g></g></g><g fill="#ffffff" fill-opacity="1"><g transform="translate(85.760565, 21.463816)"><g><path d="M 3.484375 -5.859375 C 4.359375 -5.859375 5.066406 -5.710938 5.609375 -5.421875 C 6.160156 -5.128906 6.4375 -4.648438 6.4375 -3.984375 L 6.4375 -1.75 C 6.4375 -1.632812 6.460938 -1.535156 6.515625 -1.453125 C 6.578125 -1.367188 6.664062 -1.328125 6.78125 -1.328125 L 7.171875 -1.328125 L 7.171875 -0.09375 C 7.148438 -0.0703125 7.09375 -0.046875 7 -0.015625 C 6.914062 0.015625 6.789062 0.046875 6.625 0.078125 C 6.457031 0.109375 6.265625 0.125 6.046875 0.125 C 5.628906 0.125 5.285156 0.0625 5.015625 -0.0625 C 4.742188 -0.1875 4.554688 -0.359375 4.453125 -0.578125 C 4.179688 -0.367188 3.875 -0.195312 3.53125 -0.0625 C 3.195312 0.0625 2.800781 0.125 2.34375 0.125 C 1 0.125 0.328125 -0.40625 0.328125 -1.46875 C 0.328125 -2.03125 0.472656 -2.457031 0.765625 -2.75 C 1.066406 -3.039062 1.5 -3.238281 2.0625 -3.34375 C 2.632812 -3.457031 3.375 -3.515625 4.28125 -3.515625 L 4.28125 -3.796875 C 4.28125 -4.015625 4.203125 -4.179688 4.046875 -4.296875 C 3.890625 -4.421875 3.691406 -4.484375 3.453125 -4.484375 C 3.222656 -4.484375 3.023438 -4.441406 2.859375 -4.359375 C 2.703125 -4.273438 2.625 -4.148438 2.625 -3.984375 L 2.625 -3.9375 L 0.5 -3.9375 C 0.488281 -3.96875 0.484375 -4.019531 0.484375 -4.09375 C 0.484375 -4.632812 0.738281 -5.0625 1.25 -5.375 C 1.769531 -5.695312 2.515625 -5.859375 3.484375 -5.859375 Z M 4.28125 -2.5 C 3.664062 -2.5 3.210938 -2.429688 2.921875 -2.296875 C 2.628906 -2.160156 2.484375 -1.976562 2.484375 -1.75 C 2.484375 -1.394531 2.726562 -1.21875 3.21875 -1.21875 C 3.5 -1.21875 3.742188 -1.289062 3.953125 -1.4375 C 4.171875 -1.59375 4.28125 -1.78125 4.28125 -2 Z M 4.28125 -2.5 "/></g></g></g><g fill="#ffffff" fill-opacity="1"><g transform="translate(92.995911, 21.463816)"><g><path d="M 4.46875 -5.71875 L 4.46875 -4.265625 L 3.25 -4.265625 L 3.25 -2.078125 C 3.25 -1.816406 3.289062 -1.625 3.375 -1.5 C 3.46875 -1.382812 3.628906 -1.328125 3.859375 -1.328125 L 4.46875 -1.328125 L 4.46875 -0.0625 C 4.289062 -0.0078125 4.066406 0.03125 3.796875 0.0625 C 3.523438 0.101562 3.285156 0.125 3.078125 0.125 C 2.441406 0.125 1.953125 0.0078125 1.609375 -0.21875 C 1.265625 -0.445312 1.09375 -0.84375 1.09375 -1.40625 L 1.09375 -4.265625 L 0.296875 -4.265625 L 0.296875 -5.71875 L 1.1875 -5.71875 L 1.640625 -7.453125 L 3.25 -7.453125 L 3.25 -5.71875 Z M 4.46875 -5.71875 "/></g></g></g></svg>